<?xml version="1.0" encoding="utf-8"?>
<svg version="1.0" xmlns="http://www.w3.org/2000/svg" width="1702" height="1458" viewBox="0 0 1702 1458">
  <path d="m881.97 1416.63-.97-.45v-44.08h-19.2l-.9-.9-.9-.9v-5.32l16.35-16.35 16.27-16.27h6.74l16.35 16.35 16.35 16.35-.22 3.37-.22 3.3-10.65.22-10.72.22-.15 22.27-.22 22.27-2.55.22-2.55.3-1.65-.9-1.65-.9-6.3.45c-3.45.15-7.65.52-9.3.75l-3 .37-.9-.37z" />
  <path d="m1204.75 1392.34-219.54-.52-.45-.45-.45-.45.07-52.11.15-52.18h-11.32v-11.24h-4.5v-145.46h-.9c-3.3.07-17.47 2.47-23.99 4.12-15.22 3.9-31.04 10.95-44.09 19.57-15.75 10.42-30.14 24.82-40.86 40.79l-4.27 6.37-4.8 9.75-4.87 9.75-2.92 9-2.85 9-1.57 8.17-1.65 8.25-.67 8.62c-.37 4.8-.75 12-.75 16.05v7.27h-67.48l-.15 44.76-.22 44.84-203.57-.3c-111.94-.15-237.98-.52-280.04-.75l-76.48-.45-.22-13.57-.15-13.57-32.77-.45c-17.99-.3-46.49-.52-63.28-.52H79.57l-.37-.6c-.22-.37.15-258.9.75-574.56l1.12-573.88.75-1.27c.37-.75.67-2.02.67-2.77v-1.5l-.75-.45-.75-.45v-20.77c0-11.4.22-25.64.52-31.57l.45-10.8 244.35.45 244.28.37V83.99h573.58v45.58l24.97.45c13.65.22 134.51.6 268.5.75l243.6.37.67.67.6.6-1.12 509.85c-.6 280.34-1.12 563.46-1.12 629.14v119.29l-.45 1.2-.45 1.2-127.61-.15c-70.1-.07-226.28-.37-347-.6zm456.02-87.35v-65.61h-57.74v130.46l18.59.22c10.2.07 23.17.22 28.87.37l10.27.15v-65.61zm-498.23 45.74v-18.74l-2.77-.22-2.85-.22v-6.6l2.85-.22 2.77-.22.22-18.89.15-18.97h-96.72l.15 18.97.22 18.89 14.85.22 14.85.15-.22 3.22-.22 3.15-14.77.22-14.85.15v37.48l45.96.22c25.19.07 46.94.15 48.14.15h2.25v-18.74zm192.69 9.22.45-9.97-.22-71.6-.22-71.6-18.52-.22-18.59-.15-.15 16.65-.22 16.72-1.8.22c-.9.15-2.55.07-3.52-.15l-1.8-.45v-33l-18.14.15-18.14.22-.52 1.87-.52 1.87-.07 38.46-.07 38.39h-102.72v36.74l24.97.15 24.89.22v7.5l-24.89.22-24.97.15v36.74l51.58.22c28.34.07 69.8.22 92.07.37l40.64.15.52-9.9zm239.78-2.62.52-12.45v-94.25h-62.08c-34.19 0-83.98-.22-110.59-.52l-48.51-.45v120.19h220.21l.45-12.52zm-540.82-29.47v-41.24h-50.98v82.48h50.98v-41.24zm-305.91 16.12v-13.12l-32.39-.15-32.47-.22-.22-2.02-.22-2.1h-20.84l-.22 1.72-.22 1.65h-62.98l-.22-2.02-.22-2.1h-20.92v4.5h-65.24v27H748.3V1344zm-374.89 5.4v-7.05l-20.77-.45c-11.47-.3-44.69-.52-73.85-.52h-53.08v15h147.7v-6.97zm119.96-22.64v-29.62H380.89v59.24h112.46v-29.62zm-234.83 4.35c.6-1.57 2.17-6.75 3.67-11.47l2.62-8.62.07-11.62.15-11.62 2.4-5.02 2.32-5.02 3.07-3.3 3.07-3.3 4.65-2.55 4.72-2.55h19.5l4.72 2.55 4.65 2.55 3.07 3.3 3.07 3.3 2.32 5.02 2.4 5.02.07 11.62.15 11.62 2.02 7.5c1.12 4.12 2.77 9.3 3.67 11.4l1.57 3.97h40.86v-44.08l.97-.37c.45-.15 27.44-.15 59.83.07l58.93.37.52-91.7.6-91.62-.75-.75-.75-.75-1.35.3-1.42.22-.37 67.48-.37 67.48-2.25.22c-1.2.15-6.6-.07-12-.6l-9.75-.82-7.8-1.5-7.8-1.5-7.95-2.62-7.95-2.62-8.62-4.12-8.62-4.12-8.25-5.55-8.25-5.55-6.75-5.92-6.75-5.92-5.25-6.15c-13.95-16.42-23.54-34.34-28.87-54.21l-2.25-8.47-1.12-7.87-1.12-7.87v-10.12H225.83l-.52 15.6-.52 15.52.07 95.22.07 95.22.45 3.6.45 3.52h31.64l.97-2.77zm62.38 1.65-.9-1.12-2.77-.75-2.7-.75h-39.14l-2.25.45-2.17.45-1.8 1.42-1.87 1.42h54.51l-.9-1.12zm-103.24-21.89.52-16.95v-188.72H98.22v222.68h118.99l.45-17.02zm101.52 10.8c-1.05-2.85-5.7-21.82-6.37-26.02l-.67-4.87-1.8-3.75-1.72-3.75-3.52-3.52-3.45-3.45-3.07-.97-3-.9-2.62.52-2.62.45-3 2.25-3 2.17-2.47 3.52-2.4 3.52-1.42 4.42-1.35 4.5v4.72l-3 10.72c-1.65 5.85-3 10.87-3 11.02 0 .22 11.02.37 24.44.37h24.44l-.37-.97zm429.1-19.19v-16.5l-3.15-.22-3.22-.22-.22-2.4-.22-2.47H636.65l-.22 2.47-.22 2.4-62.01.22-62.08.15v32.17l9.97.3c5.4.07 58.56.3 118.09.37l108.12.15v-16.42zm517.35-62.46c0-21.97.22-70.85.45-108.64l.45-68.68-24.22-.45-24.29-.52h-166.83v2.17c0 1.2-.22 3.22-.45 4.5l-.45 2.32h-29.1v-6.74h22.5v-2.24h-84.72v1.27l7.35.45c3.97.3 8.85.52 10.87.52h3.52v6.74h-29.24v-8.92l-5.4-.22-5.47-.22v-141.7l91.7-.22 91.62-.15.22-58.33c.22-78.2.22-76.93.37-83.53l.15-5.85h18v11.24h4.27l.45-8.4.37-8.47 1.65-7.87 1.57-7.87 2.62-7.87 2.55-7.87 5.25-10.5 5.25-10.5 4.8-6.75 4.87-6.75 6.15-6.6c7.27-7.87 15.97-15.3 24.67-21.07l6.37-4.27 8.25-4.05 8.25-4.05 7.8-2.7 7.87-2.7 9.15-1.8 9.15-1.87 7.95-.52 7.95-.45v-23.62l-1.5-8.92c-1.95-11.25-4.35-19.64-8.55-29.69l-3.37-8.02-4.12-7.05c-7.42-12.52-16.35-23.47-26.69-32.54l-6.37-5.55-7.72-5.17-7.8-5.25-7.57-3.67-7.65-3.67-8.02-2.7c-8.55-2.85-19.04-5.25-26.62-6.07l-4.72-.52-.15 66.28-.22 66.28-2.02.22-2.1.22v9.3l-.6.97-.6.9-14.25-.15-14.17-.22.3-217.21.3-217.29h-59.46v1.35c0 .67.67 5.17 1.5 9.9.82 4.72 1.5 10.05 1.5 11.85v3.15h-3v41.46c0 22.72-.22 57.88-.52 77.98l-.45 36.59-3.07-.22-3.07-.22-.22-77.75-.15-77.83h-3v-2.4c0-1.35.82-7.2 1.8-12.97.97-5.77 1.72-10.57 1.65-10.65-.07-.07-16.42-.37-36.29-.67l-36.14-.52v-4.8l-42.14-.45c-23.24-.3-67.11-.52-97.47-.52h-55.26l-.22 2.85-.22 2.77-100.92-.3-100.92-.3-.45 110.89c-.3 61.03-.52 170.13-.52 242.48s-.22 151.61-.52 176.05l-.45 44.39H512.9v11.24h-20.92l-8.47 1.12-8.47 1.12-7.05 1.87c-3.82 1.05-10.35 3.22-14.4 4.8l-7.42 2.92-7.05 3.9-7.05 3.9-7.87 5.85-7.8 5.92-7.05 7.42-7.05 7.42-5.02 7.05-5.02 7.05-4.57 9-4.5 9-2.55 7.87c-2.85 8.7-4.8 17.39-5.47 24.52l-.45 4.72 63.28.15 63.28.22.22 2.02.22 2.02 5.4.22 5.4.22-.3 173.35-.3 173.35 3.3.22 3.3.22.22 2.85.22 2.77H629.1v-5.24l.97-.15c.45 0 44.99 0 98.97.15l98 .22v-1.8c0-.97.37-5.47.75-10.05l.82-8.25 1.8-8.77 1.8-8.77 2.7-8.1 2.7-8.1 4.35-9 4.42-9 4.42-6.75c6.45-9.82 13.05-17.84 20.77-25.42l6.75-6.6 7.27-5.47c13.57-10.2 27.44-17.47 43.41-22.79l7.12-2.4 9-1.8 9-1.87 12.07-.9 12-.9 1.27.52 1.27.45v145.53h3.67l.22-5.4.22-5.47h18l.22 11.1.22 11.02h56.08l.22-1.65.22-1.72 54.36-.37c29.92-.22 54.81-.22 55.33-.07l.9.22v4.34h95.22v-39.89zm330.05-2.25.22-5.47 21.59-.22 21.52-.15v-35.68l-3.9-1.57c-2.17-.9-7.72-2.62-12.3-3.9l-8.32-2.32-7.42.45-7.42.52-4.5-.97-4.5-.9-3.82-1.8-3.82-1.8-3.37-2.92-3.3-3-2.47-4.57-2.47-4.57-.75-5.25-.67-5.32.82-5.25.75-5.17 1.95-3.82 1.87-3.75 3.3-3.22 3.22-3.3 4.42-2.25 4.42-2.17 4.87-.9 4.8-.9 7.5.45 7.5.52 9-2.62c4.95-1.42 10.27-3 11.85-3.6l2.77-.97V1082h-12.9c-7.12 0-16.8-.22-21.37-.52l-8.47-.45V961.29h-44.98l-.15 63.58-.22 63.51-11.25-.07-11.25-.07-7.8-1.65c-4.27-.9-11.02-2.7-15-3.9l-7.2-2.32-9-4.35-9-4.35-6.37-4.27c-3.52-2.4-9.22-6.67-12.67-9.67l-6.37-5.32-5.92-6.75-5.85-6.75-4.57-6.75-4.5-6.67-3.97-7.95c-4.95-9.82-7.95-18.29-10.42-29.32l-1.87-8.55-.82-8.62c-.37-4.72-.75-8.85-.75-9.15v-.6h-41.01l-.45 72.58c-.3 39.89-.52 103.09-.52 140.51v68.08l57.96.22c31.79.07 81.58.22 110.52.37l52.63.15.22-5.4zm-1117.85-44.61c.3-21.67.52-51.88.52-67.11v-27.59h4.5v-11.24h11.24V927.5l-63.51-.15-63.58-.22.07-8.77.07-8.77.9-6.22c2.85-19.42 9.67-37.11 21.14-54.28l5.47-8.1 8.25-8.55 8.32-8.55 6.75-5.02c8.32-6.22 13.95-9.67 23.09-13.95l7.05-3.37 8.17-2.62 8.17-2.7 8.25-1.42c4.5-.75 11.4-1.65 15.15-1.87l6.9-.6.22-10.95.22-10.95 37.19-.22 37.19-.15.45-230.71c.3-126.86.52-266.85.52-311.01v-80.38l-173.72-.45c-95.6-.3-201.32-.52-234.98-.52h-61.26l-.45 44.46c-.22 24.37-.6 164.43-.9 311.16l-.45 266.7h41.16c22.57 0 77.75.22 122.66.52l81.5.45v118.24H327l-7.72.82c-10.2.97-20.09 3.22-29.47 6.45l-7.57 2.62-7.35 3.67c-18.67 9.37-34.11 22.57-46.64 40.04l-4.87 6.75-4.8 9.75-4.87 9.75-2.55 8.25-2.62 8.25-1.2 7.5c-.67 4.12-1.42 8.4-1.57 9.6l-.3 2.02 58.63.07 58.63.07 4.87.52 4.87.45.22 2.02.22 2.02 5.4.22 5.4.22.22 38.46.15 38.39h9.67l.37.6c.15.3.6 6.45.82 13.65l.52 13.12 1.42 8.25c1.72 10.57 4.42 19.64 8.7 29.84l3.37 8.1 4.65 7.65c6.07 10.12 10.5 15.9 19.12 24.82l7.2 7.35 6.3 4.95 6.3 4.95 7.72 4.65 7.72 4.65 8.1 3.37c4.42 1.87 11.17 4.35 14.85 5.4 6.67 1.95 20.69 4.72 24.44 4.8l1.95.07.45-39.51zm1183.15-3.37c.3-23.24.52-56.98.52-74.98v-32.84h-15v149.13l1.35.3c.67.22 3.82.37 6.97.45l5.7.07.45-42.14zm-349.77-1.95.22-11.47 3.15.22 3.15.22.22 11.47.22 11.4h37.18l.45-41.01.45-41.01-.37-.6-.37-.6h-37.41v38.98h-6.74v-38.98h-38.24v82.25l.52.52.52.45 18.37-.15 18.44-.22.22-11.47zm327.58-41.39-.15-15.37-1.5 2.25-1.5 2.17-.22 22.34-.22 22.34 1.35 2.85 1.35 2.77.52-12 .6-12-.22-15.37zm-11.47 32.54.45-3.52v-41.01h-.52c-.37 0-5.17 1.12-10.72 2.55-5.55 1.42-12.97 3.15-16.35 3.75l-6.3 1.12-4.2 2.47-4.12 2.47-2.32 3.22c-1.27 1.8-2.7 4.42-3.22 5.85l-.9 2.55.82 2.47c.45 1.27 1.8 3.75 2.92 5.47l2.02 3 3 2.1c1.65 1.12 4.65 2.62 6.67 3.45l3.75 1.42 4.5.45 4.57.52 8.55 2.47c4.65 1.35 9 2.47 9.67 2.55l1.2.07.52-3.45zm-316.11-78.05.22-8.47h6.6l.22 8.47.22 8.4 18.22.22 18.14.15.3-.9c.22-.52.52-33.97.75-74.23l.45-73.33-116.07-.15-115.99-.22-.22-16.57-.15-16.57-19.27-.45-19.19-.52H947.71v71.98h3.74v-25.5h30.07l-.22 3.97-.22 3.9-11.02.22-11.1.22v17.17l16.72.15 16.65.22.22 3.45.22 3.45-5.77.45c-3.15.3-13.35.52-22.57.52h-16.72v47.24h3v-11.62l.67-.97.6-.97 3.3.22 3.3.22.22 6.6.22 6.52h83.9v-11.62l.67-.97.6-.97 3.3.22 3.3.22.22 6.6.22 6.52h220.21l1.2.45 1.2.45v53.61l.52.52.52.45 17.99-.15 18.07-.22.22-8.4zM325.4 1070.7v-15.75l-20.02-.15-20.09-.22-.22-2.02-.22-2.1h-20.84l-.22 2.1-.22 2.02h-62.24l-.22-2.02-.22-2.1h-21.67v3.6l-23.02.3-23.09.3-.6-.45-.52-.45.15-28.12.22-28.04 2.1-.22 2.02-.22v-20.84l-2.02-.22-2.1-.22v-62.24l2.1-.22 2.02-.22v-20.84l-1.65-.22-1.72-.22-.37-27.74-.37-27.74.75-.75.75-.82 23.09.3 23.02.3v4.34h20.92l.22-2.02.22-2.1 31.34-.22 31.27-.15v4.5h21.74v-4.5h39.58l.52-8.4.45-8.47-.22-15-.22-15-113.37-.22-113.44-.15v64.71c0 35.61-.22 102.79-.52 149.21l-.45 84.5h227.41v-15.75zm1214.04-52.63.22-63.21 2.02-.22 2.02-.22.22-5.4.22-5.4 16.35-.22 16.27-.15V837.61l-2.02-.22-2.1-.22-.22-56.76-.15-56.76-6.22-.22-6.15-.22-.22-9.15-.22-9.22h102.64l.45-100.62c.22-55.41.6-180.17.75-277.34l.3-176.65-259.35-.6c-142.68-.3-259.57-.45-259.72-.22-.22.15-.6 109.02-.82 241.88l-.52 241.58h3.97V500.08l1.27-.45 1.2-.45 11.32.82 11.32.9 7.5 1.57 7.5 1.5 7.87 2.62 7.87 2.62 8.25 3.97c22.64 10.87 40.56 26.69 54.66 48.21l5.02 7.65 3.6 7.72 3.67 7.72 2.62 8.25 2.62 8.25 1.57 8.17 1.57 8.17.52 7.72.45 7.72 10.95.22 10.95.22.22 35.46.15 35.39h18.22c9.97 0 33.07.22 51.36.52l33.14.45v17.77h-20.24v107.14l3.22.22 3.15.22-.15 56.01-.07 56.08 12.45.15 12.52.22.45 13.5.52 13.5 1.2 6.9c5.1 28.72 18.89 53.53 40.71 73.1l5.85 5.25 7.8 5.17 7.8 5.25 7.57 3.67 7.57 3.6 8.55 2.7 8.55 2.77 7.95 1.42c4.35.75 8.7 1.42 9.6 1.42l1.72.07.15-63.13zm122.06.15v-56.23h-57.74v111.72l26.47.22c14.47.07 27.52.22 28.87.37l2.4.15v-56.23zm-1336.11 11.25v-13.5l-63.51-.15-63.58-.22.15-10.5.07-10.5 1.95-9.45 1.87-9.37 2.7-7.8c4.5-12.82 10.5-23.99 19.19-35.61l5.02-6.75 8.17-7.87 8.17-7.87 7.05-5.02 7.12-5.02 9-4.57 9-4.5 7.95-2.62c4.35-1.42 11.32-3.3 15.37-4.2l7.42-1.5 8.47-.45 8.4-.45v-34.04l-51.88-.45c-28.49-.3-69.35-.52-90.72-.52h-38.84v196.44h181.44v-13.5zm1297.87-163.3c0-42.44.22-91.85.52-109.84l.45-32.77h-39.96v107.22h6.74v112.46h32.24v-77.08zm38.99-32.77V723.56h-27v56.98h-4.5v20.92l2.1.22 2.02.22.22 31.34.15 31.27h-4.5v21.74h4.5v56.98h27V833.39zm-371.14 38.61v-70.48h-11.24v-11.17l-2.02-.22-2.1-.22-.22-66.21-.15-66.21-3.6.45c-29.39 3.9-51.88 13.87-73.4 32.54l-6.15 5.4-5.4 6.15-5.32 6.15-5.55 8.25-5.47 8.32-3.75 7.8-3.67 7.87-2.7 8.47-2.77 8.55-1.5 9.07-1.57 9.15-.52 12.75-.45 12.75-5.4.22-5.47.22v140.06l2.1.3c1.12.15 34.49.37 74.23.45l72.13.07v-70.48zm53.23 41.99v-28.49h4.5v-20.92l-2.02-.22-2.1-.22v-62.24l2.1-.22 2.02-.22v-21.6l-2.02-.22-2.1-.22-.22-28.27-.15-28.34h-34.48v55.71c0 30.67-.22 80.08-.52 109.84l-.45 54.13h35.46v-28.49zm40.49-23.92V837.6l-2.02-.22-2.1-.22-.22-57.13-.15-57.21h-24V942.5h28.5v-52.41zm-93.72-172.9v-65.61h-3.74v131.22h3.74v-65.61zm-506.7-517.12.22-2.47 170.42.15 170.35.15v-95.15H589.3v99.72h194.87l.22-2.4z" />
  <path d="m1607.68 1305.22.22-58.71h50.98l.22 58.71.15 58.63h-51.74l.15-58.63zm44.09 31.42c0-10.87.22-33.97.52-51.36l.45-31.64h-37.56l-.45 1.72-.45 1.65v99.35h37.48v-19.72zm-522.45-8.18.22-3.22 3.22-.22 3.15-.22v6.82h-6.82l.22-3.15zm112.39 2.85-.9-1.12.22-2.47.22-2.47 34.64-.22 34.71-.15.15-31.72.22-31.64 3.6-.22 3.52-.22-.15 35.46-.22 35.46-37.56.22-37.56.15-.9-1.05zm237.91 34.86-94.47-.45-3.07-2.02-3-1.95-1.2-2.62-1.27-2.62v-93.28l1.27-2.62 1.2-2.62 3-1.95 3.07-2.02 98.6.22 98.67.3 2.92 1.57 3 1.65 1.72 3.37 1.8 3.3-.22 46.56-.22 46.49-1.8 2.85-1.72 2.85-2.85 1.42-2.92 1.5-3.97.22c-2.17.15-46.49.07-98.52-.15zm98.15-7.87 2.4-.97 1.87-2.02 1.87-2.1.22-17.17.22-17.24-1.5.75-1.5.82h-9.97l-2.55-2.55-2.55-2.55v-10.04l2.55-2.55 2.55-2.55h9.97l1.5.75 1.42.82v-33.22l-1.2-2.1-1.27-2.02-2.32-1.42-2.32-1.42h-187.67l-2.02 1.87-2.1 1.87-.97 2.4-1.05 2.4v81.12l1.05 2.02c.6 1.12 1.8 2.7 2.62 3.45l1.65 1.5 3.15.52 3.15.45 90.2.15 90.2.07 2.4-1.05zm.82-47.16.82-1.27-1.27-1.27-1.27-1.27-1.57 1.42-1.5 1.35 1.27 1.42 1.27 1.35.75-.22c.37-.15 1.05-.82 1.5-1.5zm-1154.14 39.59-4.72-1.05-4.72-2.25-4.8-2.17-3.45-3.22-3.52-3.22-1.57-3.07-1.65-3v-14.24l2.02-3.52 2.1-3.45 3.15-2.7 3.15-2.77 3.82-1.8c2.02-1.05 5.92-2.4 8.62-3.07l4.87-1.27h18.74l4.8 1.2 4.8 1.27 5.17 2.77 5.17 2.7 2.55 3c1.35 1.57 3.15 4.2 3.9 5.7l1.35 2.7v6.75l-.07 6.75-1.57 3-1.57 3.07-3.52 3.22-3.45 3.22-4.72 2.17-4.72 2.17-5.17 1.12-5.17 1.12-7.5-.07-7.5-.07-4.8-.97zm20.54-7.12 2.25-.6H427l2.25.6 2.25.6h11.24l2.25-.6zm-13.87-9.45c0-1.05.37-2.55.75-3.37l.82-1.42h8.84l.82 1.42c.37.82.75 2.32.75 3.37v1.95h10.27l3-2.17 3-2.17 1.65-2.7 1.65-2.7-.45-1.57c-.3-.9-1.72-2.92-3.3-4.65l-2.7-3-4.35-2.1-4.42-2.1-5.25-.9-5.25-.97-4.8.82-4.72.82-4.35 2.02-4.35 1.95-2.77 2.7-2.77 2.7-.82 2.1-.9 2.1 1.65 2.77 1.72 2.7 3 2.17 3 2.17h10.27v-1.95zm-322.1-11.47-3.07-1.42-1.8-2.47-1.8-2.55-.22-98.67-.15-98.6 1.72-3.37 1.8-3.3 2.92-1.65 2.92-1.72h92.22l3.07 1.42 3.07 1.35 1.57 2.1 1.65 2.1.82 3.07.82 3.07-.37 95.97-.3 95.97-1.2 2.7-1.12 2.7-2.85 2.17-2.77 2.17-46.94.15-46.94.22-3.07-1.42zm39.44-7.5-.75-1.5v-9.52l1.2-1.72 1.27-1.72 2.47-1.05 2.47-1.05h5.4l2.47 1.05 2.47 1.05 1.27 1.72 1.2 1.72v9.52l-.75 1.5-.82 1.42h33.14l2.1-1.05 2.1-1.12 1.42-2.1 1.42-2.1.22-93.57.15-93.65-1.5-2.47-1.5-2.47-2.47-.97-2.4-1.05h-82.48l-2.32 1.42-2.32 1.42-1.12 1.95-1.2 1.95-.22 93.72-.3 93.72 1.27 1.8c.67.97 2.25 2.4 3.37 3.15l2.1 1.42h33.44l-.82-1.42zm11.25-7.12c-1.2-1.5-2.55-1.5-3.75-.07l-.97 1.12 1.35 1.57 1.42 1.5 1.5-1.5 1.42-1.5-.97-1.12zm870.49-660.64v-3.37h28.5l-.37-1.65c-1.05-4.8-3.37-20.24-3.37-22.64v-2.7h2.77l.45-18.52c.3-10.27.52-45.14.52-77.6v-59.08h6.74v155.2h3v3.22c0 1.72-.82 7.8-1.8 13.42l-1.72 10.35 26.32.15 26.32.22v6l-43.64.22-43.71.15v-3.37zm276.37 532.87c0 8.48-6.9 15.37-15.37 15.37-8.48 0-15.37-6.89-15.37-15.37 0-8.47 6.89-15.37 15.37-15.37 8.47 0 15.37 6.9 15.37 15.37Zm-11.85 6.15 1.65-1.12 1.2-2.32 1.2-2.25-.45-1.65-.37-1.65-2.1-1.95c-1.12-1.05-2.77-2.1-3.6-2.4l-1.5-.45-2.4 1.5-2.4 1.42-1.27 1.87-1.2 1.95.45 1.95.52 2.02 2.32 2.17 2.25 2.1h4.04l1.65-1.2zm34.26 7.65-2.32-.97-2.02-2.4-2.02-2.47-.45-1.8-.45-1.8.22-5.92.3-6 2.25-2.32c1.27-1.35 3.15-2.85 4.27-3.45l2.02-1.05h10.94l2.55 1.57c1.42.82 3.15 2.25 3.9 3.15l1.35 1.65.82 3.9.82 3.9-.52 3.45-.45 3.45-1.65 2.32c-.82 1.27-2.55 3.07-3.67 3.9l-2.1 1.57-5.77.22-5.77.15-2.25-1.05zm11.62-8.62 2.17-2.1.52-2.1.52-2.02-1.5-1.95c-.82-1.12-2.55-2.62-3.9-3.37l-2.32-1.42-2.4 1.42-2.4 1.42-1.42 2.4-1.42 2.47.9 2.25.97 2.25 1.87 1.42 1.87 1.5h4.42l2.1-2.17zm-56.98-36.97-3.37-1.72-1.65-2.55-1.72-2.55v-11.92l1.57-2.85 1.57-2.85 3-1.65 2.92-1.65 6.15.3 6.15.22 2.47 1.72 2.4 1.8 1.2 2.25 1.2 2.32.37 4.27.45 4.27-.97 2.92-.9 2.92-2.02 2.17-1.95 2.1-2.4 1.05-2.4 1.05h-8.77l-3.3-1.65zm12.45-8.55 2.55-2.62v-3.67l-2.4-2.55-2.47-2.55-1.5-.45-1.5-.45-2.4 1.5-2.4 1.42-1.2 2.32-1.2 2.32.45 1.42c.22.82 1.5 2.47 2.7 3.75l2.32 2.25h4.57l2.47-2.7zm55.63-4.49c0 8.54-6.9 15.37-15.37 15.37-8.55 0-15.37-6.83-15.37-15.37 0-8.48 6.82-15.37 15.37-15.37 8.47 0 15.37 6.89 15.37 15.37Zm-9.67 3.75 1.57-2.02v-3.3l-1.57-2.02-1.57-1.95-2.17-1.2-2.25-1.12-2.4 1.35-2.32 1.42-1.5 2.47-1.5 2.55 1.5 2.62 1.42 2.62 2.55 1.35 2.55 1.35 2.1-1.05c1.12-.6 2.77-2.02 3.6-3.07zm-30.14-68.23-.52-.52v-63.51l-22.27-.15-22.34-.22v-6.74h51.74l.22 27.74.15 27.74-.52 7.87-.6 7.87-2.62.22-2.7.22-.52-.52zm-136.24-27.22-33.44-.45-2.17-1.42c-1.2-.82-2.77-2.17-3.52-3l-1.27-1.57-.75-3.15-.82-3.15v-24.07h-34.11l-.97-.67-.97-.6.22-2.92.22-2.92 18.29-.22 18.29-.15-.45-8.85-.52-8.85.82-2.77.75-2.7 1.95-2.32 1.87-2.32 2.32-1.2 2.32-1.12 40.79.07 40.71.15 2.02.75 2.02.75 2.47 2.4 2.4 2.32.75 2.7.75 2.62v18.3l4.72.22 4.65.22v6.74l-4.65.22-4.57.22-.3 14.1-.22 14.1-2.02 3-1.95 3-2.92 1.42-2.85 1.35-8.25.07c-4.5.07-23.24-.07-41.61-.3zm12.22-11.85c.3-2.85.52-9.6.52-15v-9.97h-2.24v30h1.27l.45-5.02zm-8.85-2.02.52-2.47-.3-19.94-.22-19.94-1.57-2.1-1.5-2.1-2.62-1.35-2.55-1.27-12.37.15-12.37.22-.22 9.22-.22 9.15h15.14l-.22 3.6-.22 3.52-7.27.22-7.35.22v24.44l.52.45.45.52h31.94l.45-2.55zm42.66.9c.22-.97.45-6.67.45-12.75v-11.1h-27v25.5h26.1l.45-1.65zm-33.59-36.06.07-4.65 1.12-2.25c1.5-2.85 4.12-5.32 6.82-6.3l2.1-.82h27.97l-1.57-1.57-1.57-1.57-3.22-.67-3.3-.6-17.47-.07h-17.47l2.1 2.77 2.1 2.7.22 8.92.3 8.85h1.72l.07-4.72zm14.02.07c-.15-2.62-.37-5.25-.45-5.85l-.15-1.12-2.85 2.62-2.85 2.62-.45 3.22-.45 3.15h7.42l-.22-4.65zm20.02-.45v-5.1l-.9-.9-.9-.9h-3.14l.3 4.42.3 4.35-.82 1.65-.9 1.57h6.07v-5.1zm-182.71 12.07-25.72-.22v-6.74h30v-18.74h-22.5v-6.74l14.85.15 14.77.22.22 12.6.15 12.52h25.5v6.6l-1.2.45-1.2.45-4.57-.15c-2.55-.15-16.2-.3-30.29-.37zm587.38 48.51c-1.57-.45-3.75-1.2-4.87-1.8l-2.1-1.05-3.45-3.75-3.45-3.67-1.65-3.15-1.57-3.22-1.5-5.62-1.42-5.7v-18.14l1.12-4.72 1.12-4.65 2.25-4.5 2.32-4.57 2.62-2.92 2.62-2.92 3.9-1.87 3.82-1.95h12.14l3.82 1.95 3.9 1.87 2.62 2.92c2.92 3.3 5.17 7.35 7.35 13.5l1.5 4.12.37 10.5.37 10.5-1.2 5.1-1.2 5.1-1.87 4.05-1.95 4.05-3.37 3.75-3.3 3.67-3.3 1.57-3.22 1.65-4.8.3-4.8.3-2.85-.67zm13.72-17.39 2.25-3.07v-11.02h-4.94l-.9-.9-.9-.9v-7.87l1.42-.82c.82-.37 2.32-.75 3.37-.75h1.95v-11.47l-3.97-4.05-4.05-3.97h-3.97l-3.37 3.07-3.37 3.15-2.25 4.65-2.17 4.57-.82 5.25-.82 5.25 1.12 5.25 1.05 5.25 1.65 3.45 1.57 3.45 2.4 2.7 2.4 2.7 2.17 1.05 2.17 1.12 2.92-1.5 2.85-1.5 2.25-3.07zm10.57-19.72v-6l-.67-2.25-.75-2.25v21l.75-2.25.67-2.25v-6zm-479.78-145.61.22-48.59 48.21.07 48.21.07.6.67.6.67-.37 47.84-.37 47.76h-97.25l.15-48.51zm90.57.15v-41.61h-83l-.45 28.27c-.3 15.52-.52 34.04-.52 41.16v13.05l20.47.22c11.17.07 30.07.22 41.99.37l21.52.15v-41.61z" />
  <g fill="#fff">
    <path d="M0 729.16V0h1702v1458.32H0V729.16zm896.14 684.17h8.55l.82.82.82.82.82-.45.82-.52v-44.16h21.07l.45-1.2.45-1.2-16.42-16.42-16.42-16.42h-2.24l-16.42 16.42-16.5 16.5.97 1.12.97 1.2h19.34v44.08l.97.37.9.3 1.27-.6 1.27-.67h8.47zm781.42-23.69.45-1.2v-120.41c0-66.28.52-348.42 1.12-626.97l1.12-506.4-.6-.6-.67-.67-243.6-.37c-133.99-.15-254.85-.52-268.5-.75l-24.97-.45V86.24H572.83v44.91l-244.28-.45-244.35-.45-.45 10.8c-.3 5.92-.52 19.12-.52 29.32v18.52l.75.45.75.45v7.42l-.67 1.35-.75 1.27-1.12 571.71c-.6 314.38-.9 571.93-.75 572.23l.37.6h30.59c16.8 0 45.29.22 63.28.52l32.77.45.15 13.57.22 13.57 76.48.45c42.06.22 167.05.6 277.79.75l201.32.3.22-44.84.15-44.76h67.48v-7.27c0-4.05.37-11.25.75-16.05l.67-8.62 1.65-8.25 1.57-8.17 2.85-9 2.92-9 4.87-9.75 4.8-9.75 4.27-6.37c7.8-11.62 19.64-24.59 30.37-33.22 15.07-12.15 35.31-22.19 54.58-27.14 8.32-2.1 21.07-4.12 26.24-4.12h3.15v145.46h4.5v11.24h11.24v52.18l-.07 52.26.45.37.37.37 219.54.52c120.71.22 275.84.52 344.75.6l125.36.15.45-1.2z" />
    <path d="m1619.37 1372.32-18.59-.22v-134.96h62.24v135.72l-12.52-.15c-6.97-.15-20.92-.3-31.12-.37zm37.49-67.11-.22-56.46h-46.48l-.22 56.46-.15 56.38h47.24l-.15-56.38z" />
    <path d="m1632.12 1358.83-20.09-.22v-103.84l.45-1.65.45-1.72h42.06l-.45 35.01c-.3 19.19-.52 43.49-.52 53.98v18.97l-.9-.15c-.52-.15-9.97-.3-20.99-.37zm-522.22 12.74-45.96-.22v-41.98l14.77-.15 14.7-.22.3-.9.37-.97-14.92-.15-14.85-.22-.22-21.14-.15-21.22h101.22l-.15 21.22-.22 21.14-2.77.22-2.85.22v2.1l2.85.22 2.77.22v41.98h-4.5c-2.47 0-25.19-.07-50.39-.15zm23.77-43.41v-1.2l-.9.3c-.45.15-1.05.75-1.2 1.2l-.3.9h2.4v-1.2zm86.07 43.41-51.58-.22v-41.24l24.97-.15 24.89-.22v-3l-24.89-.22-24.97-.15v-41.24h102.72l.07-38.39.07-38.46.52-1.87.52-1.87 20.39-.22 20.39-.15v32.84l1.05.37 1.05.45.45-.45.45-.45v-32.77l20.84.15 20.77.22.22 73.85.22 73.85-.45 9.97-.52 9.9-42.89-.15c-23.54-.15-65.98-.3-94.32-.37zm95.97-75.05.15-33.29-1.27.3-1.35.22-.22 31.72-.15 31.64h-68.75l-.45.52-.52.45.82 1.05.9.97 35.31-.15 35.31-.22.22-33.22zm56.39 13.2v-62.31l51.88.45c28.49.3 79.25.52 112.84.52h60.96v98.75l-.52 12.45-.45 12.52H1372.1v-62.38zm211.21 52.41 2.32-1.27 1.8-2.77 1.72-2.85.22-44.24.22-44.24-1.8-3.37-1.72-3.37-3-1.65-2.92-1.57-96.42-.3-96.35-.22-3.07 2.02-3 1.95-1.2 2.62-1.27 2.62v88.78l1.27 2.62 1.2 2.62 3 1.95 3.07 2.02 94.47.37 94.55.37 2.25-.45c1.27-.22 3.3-.97 4.65-1.65z" />
    <path d="m1389.57 1360.93-3.15-.52-1.65-1.5c-.82-.75-2.02-2.32-2.62-3.45l-1.05-2.02v-85.62l1.05-2.4.97-2.4 2.1-1.87 2.02-1.87h192.17l2.4 1.42 2.4 1.5 1.2 2.25 1.2 2.32-.22 44.39-.22 44.31-1.87 2.02-1.87 2.1-2.4.97-2.4 1.05-92.45-.07-92.45-.15-3.15-.45zm195.31-50.69c0-4.5-3.67-8.17-8.17-8.17-4.57 0-8.25 3.67-8.25 8.17s3.68 8.17 8.25 8.17c4.5 0 8.17-3.67 8.17-8.17Zm-2.92 5.92" />
    <path d="M1582.19 1310.32c0 2.99-2.4 5.47-5.48 5.47-3 0-5.4-2.48-5.4-5.47 0-3 2.4-5.48 5.4-5.48 3.08 0 5.48 2.48 5.48 5.48Zm-581.23 17.54v-43.49h55.48v86.98h-55.48v-43.49z" />
    <path d="m1059.81 1327.93.52-43.41-.52-1.57-.45-1.57h-58.34l-.22-11.02-.22-11.1h-13.5l-.22 5.47-.22 5.4h-8.17V1124.6l-1.05-.37-1.05-.45-10.05.9-9.97.82-9 1.8-9 1.8-7.12 2.4c-15.97 5.32-29.84 12.6-43.41 22.79l-7.27 5.47-6.75 6.6c-7.72 7.57-14.32 15.6-20.77 25.42l-4.42 6.75-4.42 9-4.35 9-2.7 8.1-2.7 8.1-1.8 8.77-1.8 8.77-.82 8.25c-.37 4.57-.75 9.07-.75 10.05v1.72l-98-.15c-53.98-.15-98.52-.15-98.97-.07l-.97.07v5.24H516.69l-.22-2.77-.22-2.85-3.3-.22-3.3-.22.3-173.35.3-173.35-5.4-.22-5.4-.22-.22-2.02-.22-2.02-63.58-.22-63.66-.15.52-4.72c1.42-13.65 3.97-24.14 8.7-36.14l2.92-7.5 3.67-6.6c2.1-3.67 5.7-9.37 8.1-12.67l4.35-6.07 7.05-7.42 7.05-7.42 7.8-5.92 7.87-5.85 7.05-3.9 7.05-3.9 7.42-2.92c4.05-1.57 10.57-3.75 14.4-4.8l7.05-1.87 8.47-1.12 8.47-1.12h20.92v-11.24h74.75l.45-44.39c.3-24.44.52-103.69.52-176.05 0-72.35.22-181.45.52-242.48l.45-110.89 100.92.3 100.92.3.22-2.77.22-2.85h57.51c31.64 0 76.48.22 99.72.52l42.14.45v4.8l36.51.52c20.09.3 36.59.6 36.66.67.15.15-2.47 16.12-3.82 23.62l-.45 2.4h3.07v155.13l.82.45c.45.3.9.37 1.12.15.15-.15.52-35.31.82-78.05l.45-77.68h2.77v-.75c0-.37-.82-5.85-1.87-12.15-1.05-6.3-1.87-11.85-1.87-12.37v-.97h64.71l-.3 217.29-.3 217.21 11.92.22 11.92.22.67-.97.6-.97v-9.3l2.1-.22 2.02-.22.22-66.51.15-66.43 3.22.3c15.15 1.65 25.34 3.9 37.11 8.25l7.27 2.7 7.12 3.75c22.42 11.85 40.11 28.72 52.93 50.54l4.12 7.05 3.37 8.02c3.67 8.77 6.3 17.47 8.25 27.22l1.27 6.37.45 15 .45 15 5.47.22 5.4.22V785.1h-8.24V652.16l-9.22.45-9.15.45-9.45 1.87-9.37 1.87-7.87 2.7-7.8 2.7-8.25 4.05-8.25 4.05-6.37 4.27c-8.7 5.77-17.39 13.2-24.67 21.07l-6.15 6.6-4.87 6.75-4.8 6.75-5.25 10.5-5.25 10.5-2.55 7.87-2.62 7.87-1.57 7.87-1.65 7.87-.37 8.47-.45 8.4h-8.77v-11.24h-13.5v5.47c0 2.92-.15 11.17-.3 18.14-.15 7.05-.3 37.79-.37 68.38l-.07 55.71-91.62.15-91.7.22v137.2l5.47.22 5.4.22v8.92h24.74v-2.24h-3.52c-2.02 0-6.9-.22-10.87-.52l-7.35-.45v-5.77h89.22v6.74h-22.5v2.24h24.6l.45-2.32c.22-1.27.45-3.3.45-4.5v-2.17h171.32l24.29.52 24.29.45-.45 75.43c-.3 41.46-.52 91.4-.52 110.89v35.39h-99.72v-4.34l-.75-.3c-.37-.07-24.29-.07-53.01.15l-52.33.37-.22 46.71-.15 46.64h-2.47l.6-43.41zm55.11-680.5v-.75l-41.24-.22-41.24-.15v2.24l41.24-.15 41.24-.22v-.75zm-48.81-26.77.07-1.35h-3v-155.2h-2.24v59.08c0 32.47-.22 67.33-.52 77.6l-.45 18.52h-1.42c-.75 0-1.35.22-1.35.45 0 1.2 3.9 24.07 4.27 25.04l.45 1.12 2.1-12c1.12-6.6 2.1-12.6 2.1-13.27zm-436.82 738.92-119.44-.22v-31.5h65.24v-2.24h-18.52c-10.27 0-24.89-.22-32.62-.52l-14.1-.45v-1.27h36.96c20.39 0 74.53.22 120.34.52l83.38.45v1.27h-65.31l.22 1.35.22 1.27 32.47.22 32.39.15v31.5l-.9-.15c-.52-.15-54.73-.3-120.34-.37zm29.99-32.84.15-.75-28.49-.22c-15.67-.07-28.94 0-29.47.22l-.97.37.45.75.45.75 28.87-.15 28.79-.22.22-.75zm-435.85 22.11v-9.75h55.33c30.37 0 64.63.22 76.1.52l20.77.45v18.52h-152.2v-9.75zm155.21-22.11v-31.87H495.6v63.74H378.64v-31.87zm68.53 21.74 5.17-1.12 4.72-2.17 4.72-2.17 3.45-3.22 3.52-3.22 1.57-3.07 1.5-3 .07-4.5v-4.5l-1.27-2.7c-.75-1.5-2.55-4.12-3.9-5.7l-2.55-3-5.17-2.7-5.17-2.77-4.8-1.2-4.8-1.27h-14.24l-4.87 1.27c-2.7.67-6.6 2.02-8.62 3.07l-3.82 1.8-3.15 2.77-3.15 2.7-2.1 3.45-2.02 3.52v4.87l.07 4.87 1.57 3 1.57 3.07 3.52 3.22 3.45 3.22 4.8 2.17 4.72 2.25 4.72 1.05 4.8.97 5.25.07 5.25.07 5.17-1.12z" />
    <path d="M425.13 1345.4c-2.25-.6-5.55-1.8-7.27-2.62l-3.22-1.57-3.67-3.3-3.75-3.37-1.27-3.3-1.27-3.37.37-3.82.37-3.75 2.25-3.15 2.17-3.15 3.82-2.7 3.9-2.7 5.1-1.65 5.02-1.65 6.07-.45 6.07-.45 6.22 1.27 6.3 1.27 3.82 1.95c2.1 1.05 5.1 2.92 6.6 4.12l2.7 2.1 1.95 3.9 1.95 3.9v6l-1.57 3.15-1.5 3.22-2.92 2.62-2.92 2.62-3.75 1.95c-2.1 1.05-5.7 2.4-8.1 3l-4.27 1.12-7.57-.07h-7.5l-4.12-1.12zm34.94-7.12 3.37-2.25 1.8-2.77 1.8-2.77.52-2.85.45-2.85-1.2-3.3-1.27-3.22-3.37-3.15-3.37-3.15-4.12-1.87-4.12-1.87-6.15-1.05-6.15-1.12-4.5.45c-5.7.6-11.77 2.25-16.12 4.5l-3.37 1.72-2.55 2.55-2.55 2.47-1.5 3.3-1.42 3.3.45 3 .52 3.07 1.57 2.55 1.57 2.55 3.45 2.55 3.45 2.55h39.44l3.37-2.32z" />
    <path d="m415.6 1336.18-3-2.17-1.65-2.62-1.57-2.55v-5.54l1.05-2.02c2.55-4.8 8.85-9 16.72-11.02l4.27-1.12h10.57l4.72 1.12c8.1 1.95 14.47 6.07 17.09 11.02l1.05 2.02v5.84l-2.17 3-2.17 3-2.62 1.65-2.55 1.57h-15.97v-.45c0-.22.37-1.05.75-1.87l.82-1.42-.82-1.5-.82-1.5h-4.42l-.9 1.87-.82 1.95.82.82c.52.52.9 1.2.9 1.5v.6h-16.27l-3-2.17z" />
    <path d="M222.68 1234.74v-101.45l.45-15.15.52-15.22h126.49v10.12l1.12 7.87 1.12 7.87 2.25 8.47c5.32 19.87 14.92 37.79 28.87 54.21l5.25 6.15 6.75 5.92 6.75 5.92 7.8 5.25 7.8 5.25 6.82 3.45c17.69 8.92 37.11 13.95 55.93 14.62l6.37.22.37-67.48.37-67.48 3.67-.22 3.67-.22.67.67.75.75-.52 93.87-.6 93.95-58.93-.37c-32.39-.22-59.38-.22-59.83-.07l-.97.37v44.08h-45.36l-1.72-4.27c-.9-2.4-2.85-8.55-4.27-13.8l-2.55-9.37.82-3.37.75-3.3-.37-6.15-.37-6.15-2.25-4.87-2.25-4.87-3.07-3.3-3.07-3.3-4.65-2.55-4.72-2.55h-15l-4.72 2.55-4.65 2.55-3.07 3.3-3.07 3.3-2.32 5.02-2.32 5.02-.3 6.37-.3 6.37.75 2.85.82 2.85-3.3 11.02c-1.8 6.07-3.67 12.3-4.27 13.87l-.97 2.77h-37.11v-101.37z" />
    <path d="M263.17 1335.73c0-.3.52-1.42 1.05-2.55l1.12-2.1 2.1-1.42 2.1-1.42 22.49-.22 22.49-.22 3.22.45 3.22.45 2.47 2.25 2.55 2.17.37 1.5.37 1.5h-63.58v-.37zm-167.2-119.21v-113.59h124.46v193.22l-.52 16.95-.45 17.02H95.97v-113.59zm110.52 102.79 2.85-2.17 1.12-2.62 1.12-2.62.37-93.8.45-93.8-.9-3.07-.82-3.07-1.65-2.1-1.57-2.1-3.07-1.35-3.07-1.42H113.6l-2.92 1.72-2.92 1.65-1.8 3.3-1.72 3.37.15 96.35.22 96.42 1.8 2.55 1.8 2.47 3.07 1.42 3.07 1.42 44.69-.22 44.69-.15 2.77-2.17z" />
    <path d="M111.49 1317.44c-1.12-.75-2.7-2.17-3.37-3.15l-1.27-1.8.3-95.97.22-95.97 1.2-2.1 1.2-2.02 3.07-1.5 3-1.5 43.11.15 43.11.22 2.32 1.27 2.25 1.2 1.35 2.55 1.27 2.47-.22 95.6-.22 95.6-1.42 2.1-1.42 2.1-2.1 1.12-2.1 1.05h-88.18l-2.1-1.42zm54.44-8.32c0-4.43-3.6-8.1-8.1-8.1s-8.1 3.67-8.1 8.1c0 4.49 3.6 8.09 8.1 8.09s8.1-3.6 8.1-8.09Zm-2.25 5.24" />
    <path d="M163.3 1309.27c0 2.99-2.47 5.39-5.47 5.39-3 0-5.4-2.4-5.4-5.39 0-3 2.4-5.48 5.4-5.48 3 0 5.47 2.48 5.47 5.48Zm103.62 15.97s1.65-6.07 3.75-13.5l3.75-13.5v-4.72l1.35-4.5 1.42-4.42 2.4-3.52 2.47-3.52 2.92-2.17 2.92-2.1 3.75-.9 3.67-.9 4.27 1.27 4.2 1.2 3.52 3.52 3.52 3.52 1.72 3.75 1.8 3.75.67 4.87c.82 5.1 2.17 10.8 5.7 23.99l2.17 7.87h-56.01zm252.9-4.65-9.97-.3v-36.66l62.08-.15 62.01-.22.22-2.4.22-2.47H743.7l.22 2.47.22 2.4 3.22.22 3.15.22v37.41l-110.37-.15c-60.73-.07-114.94-.3-120.34-.37zm-200.64-24.6c-.3-2.4-.75-5.32-.9-6.37l-.37-1.87 1.12 3.37 1.2 3.37-.22 3-.22 3-.6-4.5zm-49.18.68c.07-1.57.37-3.75.75-4.8l.6-1.87-.45 4.5c-.45 5.25-.97 6.45-.9 2.17zm794.46-15.07c-.3-.22-.52-.75-.52-1.12v-.6l50.46.15 50.39.22v1.5l-49.94.22-49.94.15-.45-.52zm-90.05-82.48c.3-39.14.6-71.23.75-71.38.15-.15.3 31.79.3 71v71.38h-1.5l.45-71zm455.64 45.74-57.96-.22v-70.33c0-38.61.22-102.87.52-142.76l.45-72.58h45.51v.6c0 .3.37 4.42.75 9.15l.82 8.62 1.87 8.55c2.47 11.02 5.47 19.49 10.42 29.32l3.97 7.95 4.5 6.67 4.57 6.75 5.85 6.75 5.92 6.75 6.37 5.32c3.45 3 9.15 7.27 12.67 9.67l6.37 4.27 9 4.35 9 4.35 7.2 2.32c3.97 1.2 10.72 3 15 3.9l7.8 1.57 9 .15 9 .07.22-63.51.15-63.58h49.48v119.74l8.47.45c4.57.3 14.25.52 21.37.52h12.9v43.86l-2.77.97c-1.57.6-7.57 2.32-13.35 3.97l-10.5 3-5.77-.9-5.77-.82-5.02.82-5.02.9-4.42 2.25-4.5 2.25-3.22 3.3-3.3 3.22-1.87 3.75-1.87 3.75-.67 4.2-.67 4.12.6 4.12.52 4.12 2.47 4.57 2.47 4.57 3.3 3 3.37 2.92 3.82 1.8 3.82 1.8 4.8.97 4.72.9 5.77-.9 5.7-.82 9.75 2.62c5.4 1.5 11.55 3.45 13.72 4.27l3.9 1.65v40.18l-21.52.15-21.59.22-.22 5.47-.22 5.4-54.88-.15c-30.22-.15-80.98-.3-112.77-.37zm-966.69-11.47c-10.42-1.87-19.57-4.57-29.47-8.77l-8.1-3.37-7.72-4.65-7.72-4.65-6.3-4.95-6.3-4.95-7.2-7.35c-8.62-8.92-13.05-14.7-19.12-24.82l-4.65-7.65-3.37-8.1c-4.27-10.12-6.9-19.19-8.77-29.92l-1.42-8.4-.52-12.97c-.22-7.2-.6-13.27-.82-13.57l-.3-.6h-10.04v-76.85l-5.4-.22-5.4-.22-.22-2.02-.22-2.02-4.87-.45-4.87-.52-58.78-.07-58.78-.07.52-5.4c.3-3 1.2-8.85 2.02-12.9l1.42-7.5 2.32-7.12 2.32-7.2 4.8-9.75 4.8-9.75 4.87-6.75c12.52-17.47 27.97-30.67 46.64-40.04l7.35-3.67 7.57-2.62c9.37-3.22 19.27-5.47 29.47-6.45l7.72-.82h17.1V772.52l-81.5-.45c-44.91-.3-100.1-.52-122.66-.52H96.6l.45-268.95c.3-148.01.67-289.04.9-313.41l.45-44.46h63.51c34.86 0 141.63.22 237.23.52l173.72.45v82.63c0 45.44-.22 186.4-.52 313.26l-.45 230.71-37.19.15-37.19.22-.22 10.95-.22 10.95-6.9.6c-3.75.22-10.65 1.12-15.15 1.87l-8.25 1.42-8.17 2.7-8.17 2.62-7.05 3.37c-9.15 4.27-14.77 7.72-23.09 13.95l-6.75 5.02-8.32 8.55-8.25 8.55-5.47 8.1c-13.95 20.92-21.44 43.49-22.04 66.43l-.15 7.12 63.58.22 63.51.15v164.2h-11.24v11.24h-4.5v27.59c0 15.22-.22 45.44-.52 67.11l-.45 39.51-4.2-.07-4.2-.07-7.87-1.35zm1182.26.22-1.35-.3v-153.63h19.5v35.09c0 19.27-.22 53.98-.52 77.23l-.45 42.14-7.95-.07c-4.35-.07-8.55-.22-9.22-.45zm-374.22-32.24-.52-.45v-86.75h42.74v38.98h2.24v-38.98h41.91l.37.67.45.67-.52 43.19-.45 43.19h-41.68l-.22-11.4-.22-11.32-.9-.3-.9-.3-.22 11.47-.22 11.47-20.69.22-20.62.15-.52-.52zm32.17-21.07c0-6.82-5.55-12.44-12.45-12.44-6.82 0-12.37 5.62-12.37 12.44 0 6.9 5.55 12.45 12.37 12.45 6.9 0 12.45-5.55 12.45-12.45Zm44.91.23c0-6.9-5.55-12.37-12.37-12.37-6.9 0-12.37 5.47-12.37 12.37 0 6.82 5.47 12.37 12.37 12.37 6.82 0 12.37-5.55 12.37-12.37Zm-53.08-33.44 2.1-.75 2.32-2.32 2.4-2.25.9-3.15.9-3.22-.82-3-.82-3-1.5-1.87-1.42-1.87-2.62-1.27-2.55-1.2h-6.3l-2.85 1.57-2.85 1.57-1.57 2.85-1.57 2.85v7.42l1.72 2.55 1.65 2.55 3.37 1.72 3.3 1.65h2.02c1.12 0 3-.37 4.2-.82zm53.38-11.62c0-6.9-5.62-12.45-12.45-12.45-6.9 0-12.44 5.55-12.44 12.45 0 6.89 5.54 12.44 12.44 12.44 6.83 0 12.45-5.55 12.45-12.44Zm-7.12 10.94" />
    <path d="M1301.24 1180.38c0 5.62-4.5 10.2-10.12 10.2-5.62 0-10.12-4.58-10.12-10.2 0-5.55 4.5-10.12 10.12-10.12 5.62 0 10.12 4.57 10.12 10.12Zm45.06.07c0 5.63-4.57 10.2-10.12 10.2-5.62 0-10.19-4.57-10.19-10.2 0-5.55 4.57-10.12 10.19-10.12 5.55 0 10.12 4.57 10.12 10.12Zm-44.91-45.06c0 5.62-4.5 10.12-10.12 10.12-5.62 0-10.12-4.5-10.12-10.12 0-5.55 4.5-10.12 10.12-10.12 5.62 0 10.12 4.57 10.12 10.12Zm44.99.08c0 5.62-4.5 10.19-10.12 10.19-5.63 0-10.2-4.57-10.2-10.19 0-5.55 4.57-10.13 10.2-10.13 5.62 0 10.12 4.58 10.12 10.13Zm290.09 52.56-1.95-1.8-.75-1.95-.75-1.95v-47.24l1.05-2.47 1.05-2.47 2.02-1.57c1.12-.9 2.55-1.65 3.07-1.65h1.05v17.47c0 9.52-.22 23.69-.52 31.49l-.45 14.02h-.9c-.52 0-1.8-.82-2.92-1.87zm-17.7-4.65-11.62-3.3-6.52-.97-6.45-1.05-4.12-1.87-4.12-1.87-2.92-2.92-2.92-2.92-1.35-2.77c-.67-1.57-1.5-4.05-1.72-5.4l-.45-2.62.9-3.15.9-3.22 2.47-3.37 2.47-3.37 4.2-2.47 4.12-2.47 6.3-1.12c3.37-.6 12-2.62 19.04-4.5 7.05-1.8 12.97-3.3 13.12-3.3.15 0 .15 11.55-.07 25.64l-.37 25.72.52 2.17c.3 1.2.52 2.25.37 2.32-.07.07-5.4-1.35-11.77-3.15zm-20.91-.3c-1.8-.37-3.45-.82-3.6-.97-.6-.52 8.17.45 9.9 1.12l1.5.6-2.25-.07c-1.2 0-3.75-.3-5.55-.67zm-2.33-48.59c1.05-.37 3.6-.82 5.62-1.12l3.75-.6-.75.75-.75.67-4.87.45-4.87.37 1.87-.52zm-323.38-23.09-.52-.45v-53.61l-1.2-.45-1.2-.45h-220.28v-12.82l-1.2-.45-1.2-.45-.67 1.05-.67 1.05v11.62h-88.48v-12.82l-1.2-.45-1.2-.45-.67 1.05-.67 1.05v11.62h-7.5v-51.58l22.04-.3 22.12-.3.52-.45.45-.52-.37-1.2-.45-1.12h-33.07V979.3l11.1-.22 11.02-.22.22-1.65.22-1.72h-25.57v25.5h-8.24v-76.48h142.23l19.19.52 19.27.45.15 16.57.22 16.57 116.07.22 115.99.15-.45 75.58c-.22 41.54-.52 75.95-.75 76.48l-.22.9-20.47-.15-20.47-.22-.22-8.4-.22-8.47h-2.1l-.22 8.47-.22 8.4-20.32.22-20.24.15-.52-.52zm44.09-76.55v-32.77H1269v2.24l22.34.22 22.27.15v63.51l.52.52.52.45.75-.75.82-.82v-32.77zm-90.12 5.47 2.92-1.35 1.95-3 2.02-3 .22-14.1.3-14.1 4.57-.22 4.65-.22v-2.24l-4.65-.22-4.72-.22v-18.3l-.75-2.62-.75-2.7-2.4-2.32-2.47-2.4-2.1-.75-2.1-.82h-38.54l-38.61-.07-1.72.9c-2.55 1.27-5.02 3.82-6.37 6.3l-1.12 2.25.15 10.35.15 10.27h-35.98l-.52.82-.52.82 1.05.67 1.05.67h34.11v24.07l.82 3.15.75 3.15 1.27 1.57c.75.82 2.32 2.17 3.52 3l2.17 1.42 33.44.45c18.37.22 36.06.37 39.36.3l6-.07 2.85-1.42zm-152.88-36.06 1.2-.45v-2.1h-58.48v2.24l25.72.22c14.1.07 26.69.22 28.04.37 1.27.07 2.85-.07 3.52-.3zm-24.67-15.67v-12l-12.52-.22-12.6-.15v2.24h22.5v22.57l1.35-.22 1.27-.22v-12z" />
    <path d="m1145.29 1038.07-2.25-.97 19.57-.07 19.49-.07.9-.9.9-.9v-32.24l.9.9.9.9h5.02l-.07 14.85c-.07 8.1-.07 15.15-.07 15.6l.07.9 1.27.45 1.2.52h15.67l15.67.07 1.12-.9 1.05-.9v-30.6h3.82l-.22 14.17-.22 14.17-1.87 2.02c-1.05 1.12-2.77 2.47-3.9 3.07l-2.02 1.05h-37.34l-37.34-.07-2.25-1.05z" />
    <path d="M1143.71 1033.72c-.15-.52-.22-7.35-.15-15.15l.22-14.25h14.24l.22-1.27.22-1.35h-15.14l.22-11.4.22-11.47h31.04l2.1 1.57 2.1 1.5 1.27 2.55 1.27 2.47.07 21.97v22.04l-.45 1.87-.45 1.87h-36.66l-.37-.97zm49.19-14.02v-15h31.5v26.62l-.45 1.72-.45 1.65h-30.6v-15zm-53.53 12.3-.45-1.2v-26.1h1.5v14.25c0 7.87-.15 14.25-.3 14.25s-.52-.52-.75-1.2z" />
    <path d="m1183.75 993.23-.22-9.3-2.02-2.62-2.02-2.62-2.55-1.27-2.62-1.2h-29.4v-.67c0-.37.52-.9 1.2-1.12l1.27-.52 37.04.07 36.96.07 2.25.75 2.17.82 2.32 2.55 2.25 2.62v20.92h-3.74v-17.17l-1.42-.82-1.5-.75h-23.24l-2.1.82c-2.62.97-5.32 3.45-6.75 6.22l-1.12 2.17.07 4.8.07 4.72h-2.17c-1.2 0-2.7.22-3.3.45l-1.12.45-.3-9.37zm-44.76-1.05v-9.6l.6-1.42.6-1.5.3.75c.15.37.22 5.32.07 11.02l-.3 10.27h-1.34l.07-9.52z" />
    <path d="m1193.05 996.46.3-5.17 1.8-2.02 1.87-2.02 2.4-.97 2.4-1.05h20.77l.9.9.9.9v14.7h-31.64l.3-5.25zm22.42-3.3c0-3.23-2.63-5.78-5.85-5.78-3.22 0-5.77 2.55-5.77 5.78 0 3.22 2.55 5.85 5.77 5.85 3.22 0 5.85-2.63 5.85-5.85Zm-1.65 3.6" />
    <path d="M1207.6 995.26c-1.42-1.42-1.5-2.7-.3-3.9l.9-.9h3.37l.75 1.35.75 1.42-1.12 1.57-1.12 1.65h-1.05c-.52 0-1.57-.52-2.17-1.2zm-1111.4 5.55c.3-48.29.52-116.44.52-151.46v-63.58l115.69.15 115.62.22.22 17.24.22 17.24-.45 8.47-.52 8.4h-39.66l.22 1.35.22 1.27 19.72.22 19.64.15v1.5H138.69l.15 102.94.22 102.87 94.32.22 94.25.15v1.5l-20.02.15-20.09.22v2.24l20.09.22 20.02.15v35.98H95.72l.45-87.87zm80.75 50.01v-1.12h-40.56l.07-24.37.07-24.37-.45-.75-.45-.75-.75.37-.67.45V1026c0 14.1.15 25.87.3 26.02.15.15 9.82.22 21.37.07l21.07-.22v-1.05zm84.35.37v-1.12l-29.02-.22-29.09-.15v.97c0 .6.22 1.27.52 1.5l.52.52 28.49-.15 28.57-.22v-1.12zM136.84 944.65v-28.79h-2.24l-.22 28.12c-.07 15.45 0 28.57.22 29.09l.37 1.05.97-.37.9-.3v-28.79zm.37-80.23v-24.67h40.48v-2.17l-21.07-.22-21.07-.22-.3.52c-.22.3-.37 11.92-.3 25.79l.07 25.27.37.67.37.6.75-.37.67-.45v-24.74zm124.46-25.79v-1.12h-57.66l-.37.67-.37.6.45.52.45.45h57.51v-1.12zm1264.06 243.3-7.95-1.42-8.55-2.77-8.55-2.7-7.57-3.6-7.57-3.67-7.8-5.25-7.8-5.17-5.85-5.25c-21.82-19.57-35.61-44.39-40.71-73.1l-1.2-6.9-.52-13.5-.45-13.5-12.52-.22-12.52-.15.15-56.08.15-56.01-3.15-.22-3.22-.22V720.56h20.24v-13.27l-33.14-.45c-18.29-.3-41.39-.52-51.36-.52h-18.22l-.15-35.39-.22-35.46-10.95-.22-10.95-.22-.45-7.72-.52-7.72-1.57-8.17-1.57-8.17-2.62-8.25-2.62-8.25-3.67-7.72-3.6-7.72-5.02-7.65c-16.42-25.04-38.69-42.89-66.51-53.31l-7.27-2.7-7.72-1.87c-9.07-2.17-17.24-3.3-26.02-3.52l-6.37-.22-.22 66.58-.15 66.51h-8.24V523.26c0-61.56.22-171.4.52-244.05l.45-132.19h66.13c36.36 0 154.23.22 261.9.52l195.69.45-.3 178.9c-.15 98.37-.52 224.18-.75 279.59l-.45 100.62h-102.64l.22 6.97.22 6.9 6.15.22 6.22.22.15 56.76.22 56.76 2.1.22 2.02.22v110.14l-16.27.15-16.35.22-.22 5.4-.22 5.4-2.02.22-2.02.22-.22 63.21-.15 63.13-3.97-.07c-2.1 0-7.5-.67-11.85-1.42zm102.27-5.77-26.47-.22V959.72h62.24v116.96l-4.65-.15c-2.62-.15-16.65-.3-31.12-.37zm12.3-25.12 3.22-1.5 3.3-3.67 3.37-3.75 1.95-4.05 1.87-4.05 1.2-5.1 1.2-5.1-.37-8.25-.37-8.25-1.5-4.12c-2.17-6.15-4.35-10.2-7.35-13.5l-2.62-2.92-3.9-1.87-3.82-1.95h-7.64l-3.82 1.95-3.9 1.87-2.62 2.92-2.62 2.92-2.32 4.57-2.25 4.5-1.12 4.65-1.12 4.72v13.64l1.42 5.7 1.5 5.62 1.57 3.22 1.65 3.15 3.45 3.67 3.45 3.75 2.1 1.05c1.12.6 3.3 1.35 4.87 1.72l2.85.67 2.62-.37c1.42-.22 4.05-1.05 5.77-1.87z" />
    <path d="m1627.47 1049.32-2.92-1.05-3.22-3.15-3.22-3.15-2.17-4.57-2.25-4.57-.97-4.12-1.05-4.12.07-7.12.07-7.12 1.27-4.5c1.72-5.7 3.75-9.67 6.9-13.65l2.55-3.07 3.37-1.65 3.45-1.65 4.5.3 4.42.3 3.15 2.25 3.07 2.17 2.47 3.6 2.47 3.52 1.57 4.27 1.57 4.2.82 5.77.82 5.85-.82 5.62c-1.12 7.2-2.7 12-5.55 16.5l-2.25 3.6-3.07 2.55-3.07 2.62-2.62.75c-3.6.97-5.85.9-9.37-.37zm11.92-2.92 2.92-1.57 2.47-3.22 2.47-3.3v-40.94l-3.37-3.75-3.37-3.75-2.55-1.2-2.55-1.2h-5.47l-2.85 1.42-2.77 1.5-2.85 3.15-2.85 3.07-1.72 3.97-1.72 3.9-.97 4.65-.9 4.57.37 7.35.45 7.27 1.57 4.27 1.65 4.35 2.4 3.52c2.77 4.05 5.02 5.85 9.22 7.35l2.92 1.05 2.25-.37c1.27-.22 3.6-1.2 5.25-2.1z" />
    <path d="m1627.77 1044.59-2.62-1.42-2.77-3.6-2.7-3.6-1.57-4.72-1.5-4.65-.52-4.8-.45-4.72.82-5.47.82-5.4 1.8-4.05 1.8-4.12 3.15-3.37 3.15-3.45 2.77-.75 2.77-.75 2.7.75 2.62.75 3.52 3.75 3.45 3.67v17.32l-1.8-.82-1.72-.82-1.65.82-1.57.9v3.52l1.12.9 1.12.9 2.25-.45 2.25-.37v16.2l-2.25 3.07-2.25 3.07-2.92 1.57-3 1.5h-4.2l-2.62-1.35zM141.71 944.72V844.25h41.09c22.64 0 64.48.22 92.97.52l51.88.45v38.54l-8.4.45-8.47.45-7.42 1.5c-4.05.9-11.02 2.77-15.37 4.2l-7.95 2.62-9 4.5-9 4.57-7.12 5.02-7.05 5.02-8.17 7.87-8.17 7.87-5.02 6.75c-8.7 11.62-14.7 22.79-19.19 35.61l-2.7 7.8-1.87 9.22-1.8 9.22-.22 8.4-.15 8.47 63.58.22 63.51.15v31.5H141.73V944.7zm1447.07-55.48v-56.23h-6.74V721.29h44.46l-.45 36.14c-.3 19.87-.52 70.25-.52 112.09v75.95h-36.74v-56.23zm39.74-55.86V721.29h2.24v56.98h2.24v-56.98h31.5v224.18H1633v-56.98h-3v56.98h-1.5V833.38zm4.35-.15-.22-28.94-.82-.3-.82-.3-.45 28.72c-.22 15.75-.22 28.94-.07 29.24.22.3.9.6 1.5.6h1.05l-.15-29.02zM1142.51 944.2l-2.1-.3V799.34l5.47-.22 5.4-.22.45-12.75.52-12.75 1.57-9.15 1.5-9.07 2.77-8.55 2.7-8.47 3.67-7.87 3.75-7.8 5.47-8.32 5.55-8.25 5.32-6.15 5.4-6.22 6.52-5.7 6.52-5.62 7.12-4.8c12.15-8.1 26.24-14.55 39.36-17.99 7.5-1.95 20.99-4.12 25.42-4.12h2.7l.15 66.21.22 66.13 2.1.22 2.02.22v11.17h11.24v145.46l-74.38-.07c-40.94-.07-75.35-.3-76.48-.45zm124.01-71.23.37-45.59-.6-.67-.52-.6-46.04-.15-45.96-.07-.22 46.34-.15 46.26h92.82l.3-45.51z" />
    <path d="m1196.12 915.71-20.47-.22v-15.3c0-8.32.22-27.89.52-43.41l.45-28.27h87.5v87.72l-23.77-.15c-13.12-.15-33.07-.3-44.24-.37zm110.97-28.5c.3-31.57.52-82.03.52-112.09v-54.58h38.98l.15 28.27.22 28.34 1.35.22 1.27.22v-57.06h1.5v224.18h-1.5l-.15-28.27-.22-28.34-1.27-.22-1.35-.22v57.06h-39.96l.45-57.51zm42.06-26.17.45-1.2v-56.16l-1.27.22-1.35.22-.22 28.12c-.07 15.45 0 28.57.22 29.02.45 1.35 1.65 1.2 2.17-.22zm4.95-28.41V720.54h28.5l.15 57.21.22 57.13 2.1.22 2.02.22v109.39h-33V832.62zM587.08 208.81v-1.12h182.57l8.47.52 8.4.45v1.27H587.08v-1.12zm297.14-3.9-94.7-.22v-2.24h74.45c40.86 0 85.77.22 99.72.52l25.27.45v2.02l-5.02-.15c-2.85-.15-47.69-.3-99.72-.37z" />
    <path d="M587.08 152.58v-52.11h540.6v99.65l-170.35-.15-170.42-.15-.22 2.47-.22 2.4H587.1v-52.11zm757.28-9.75v-1.12h149.96v2.24h-149.96v-1.12zm-954.62-.9-45.59-.22v-2.47l48.51.45c26.62.3 60.36.52 74.98.52h26.47v2.24l-29.39-.15c-16.2-.15-49.94-.3-74.98-.37zm954.62-4.35v-1.12h149.96v2.24h-149.96v-1.12zm-1000.21-2.24v-1.12h149.96v2.24H344.15v-1.12z" />
  </g>
  <g font-family="Arial" text-anchor="middle" dominant-baseline="central">
    <text x="50.94%" y="10.17%" font-size="29.722">
			Balcony
		</text>
    <text x="83.206%" y="24.149%" font-size="29.498">
			Bedroom
		</text>
    <text x="20.213%" y="26.651%" font-size="29.553">
			Bedroom
		</text>
    <text x="52.233%" y="28.43%" font-size="29.882">
			Living Room
		</text>
    <text x="83.196%" y="27.931%" font-size="28.792">
			11' X 10'
		</text>
    <text x="20.177%" y="30.403%" font-size="28.617">
			10' X 14'
		</text>
    <text x="62.404%" y="29.408%" font-size="28.868">
			9'
		</text>
    <text x="52.222%" y="31.803%" font-size="28.384">
			12' X 15'
		</text>
    <text x="71.764%" y="59.787%" font-size="15.806">
			W/D
		</text>
    <text x="67.99%" y="68.044%" font-size="14.772">
			o
		</text>
    <text x="58.779%" y="69.485%" font-size="14.337">
			DW
		</text>
    <text x="67.736%" y="78.423%" font-size="29.332">
			Kitchen
		</text>
    <text x="86.871%" y="78.376%" font-size="28.897">
			Bath
		</text>
    <text x="19.344%" y="82.182%" font-size="28.631">
			Bath
		</text>
    <text x="65.388%" y="91.227%" font-size="17.018">
			Ref
		</text>
  </g>
  <g xmlns="">
    <circle transform="translate(120,120)" class="Markers" fill="blue" r="50" stroke="black" stroke-width="1" />
  </g>
  <g xmlns="">
    <circle transform="translate(120,120)" class="Markers" fill="blue" r="50" stroke="black" stroke-width="1" />
  </g>
  <g xmlns="">
    <circle transform="translate(120,120)" class="Markers" fill="blue" r="50" stroke="black" stroke-width="1" />
  </g>
  <g xmlns="">
    <circle transform="translate(120,120)" class="Markers" fill="blue" r="50" stroke="black" stroke-width="1" />
  </g>
  <g xmlns="">
    <circle transform="translate(120,120)" class="Markers" fill="blue" r="50" stroke="black" stroke-width="1" />
  </g>
  <g xmlns="">
    <circle transform="translate(120,120)" class="Markers" fill="blue" r="50" stroke="black" stroke-width="1" />
  </g>
  <g xmlns="">
    <circle transform="translate(120,120)" class="Markers" fill="blue" r="50" stroke="black" stroke-width="1" />
  </g>
  <g xmlns="">
    <circle transform="translate(120,120)" class="Markers" fill="blue" r="50" stroke="black" stroke-width="1" />
  </g>
  <g xmlns="">
    <circle transform="translate(120,120)" class="Markers" fill="blue" r="50" stroke="black" stroke-width="1" />
  </g>
  <g xmlns="">
    <circle transform="translate(120,120)" class="Markers" fill="blue" r="50" stroke="black" stroke-width="1" />
  </g>
</svg>