<?xml version="1.0" encoding="utf-8"?>
<!DOCTYPE svg PUBLIC "-//W3C//DTD SVG 1.0//EN" "http://www.w3.org/TR/2001/REC-SVG-20010904/DTD/svg10.dtd">
<svg version="1.0" xmlns="http://www.w3.org/2000/svg" width="1702px" height="1458px" viewBox="0 0 1702 1458" preserveAspectRatio="xMidYMid meet">
 <g fill="#000000">
  <path d="M 881.97 1416.63 l -0.97 -0.45 0 -22.04 0 -22.04 -9.60 0 -9.60 0 -0.90 -0.90 -0.90 -0.90 0 -2.70 0 -2.62 16.35 -16.35 16.27 -16.27 3.37 0 3.37 0 16.35 16.35 16.35 16.35 -0.22 3.37 -0.22 3.30 -10.65 0.22 -10.72 0.22 -0.15 22.27 -0.22 22.27 -2.55 0.22 -2.55 0.30 -1.65 -0.90 -1.65 -0.90 -6.30 0.45 c -3.45 0.15 -7.65 0.52 -9.30 0.75 l -3 0.37 -0.90 -0.37 z "/>
  <path d="M 1204.75 1392.34 l -219.54 -0.52 -0.45 -0.45 -0.45 -0.45 0.07 -52.11 0.15 -52.18 -5.62 0 -5.70 0 0 -5.62 0 -5.62 -2.25 0 -2.25 0 0 -72.73 0 -72.73 -0.90 0 c -3.30 0.07 -17.47 2.47 -23.99 4.12 -15.22 3.90 -31.04 10.95 -44.09 19.57 -15.75 10.42 -30.14 24.82 -40.86 40.79 l -4.27 6.37 -4.80 9.75 -4.87 9.75 -2.92 9 -2.85 9 -1.57 8.17 -1.65 8.25 -0.67 8.62 c -0.37 4.80 -0.75 12 -0.75 16.05 l 0 7.27 -33.74 0 -33.74 0 -0.15 44.76 -0.22 44.84 -203.57 -0.30 c -111.94 -0.15 -237.98 -0.52 -280.04 -0.75 l -76.48 -0.45 -0.22 -13.57 -0.15 -13.57 -32.77 -0.45 c -17.99 -0.30 -46.49 -0.52 -63.28 -0.52 l -30.59 0 -0.37 -0.60 c -0.22 -0.37 0.15 -258.90 0.75 -574.56 l 1.12 -573.88 0.75 -1.27 c 0.37 -0.75 0.67 -2.02 0.67 -2.77 l 0 -1.50 -0.75 -0.45 -0.75 -0.45 0 -20.77 c 0 -11.40 0.22 -25.64 0.52 -31.57 l 0.45 -10.80 244.35 0.45 244.28 0.37 0 -22.42 0 -22.42 286.79 0 286.79 0 0 22.79 0 22.79 24.97 0.45 c 13.65 0.22 134.51 0.60 268.50 0.75 l 243.60 0.37 0.67 0.67 0.60 0.60 -1.12 509.85 c -0.60 280.34 -1.12 563.46 -1.12 629.14 l 0 119.29 -0.45 1.20 -0.45 1.20 -127.61 -0.15 c -70.10 -0.07 -226.28 -0.37 -347 -0.60 z  m 456.02 -87.35 l 0 -65.61 -28.87 0 -28.87 0 0 65.23 0 65.23 18.59 0.22 c 10.20 0.07 23.17 0.22 28.87 0.37 l 10.27 0.15 0 -65.61 z  m -498.23 45.74 l 0 -18.74 -2.77 -0.22 -2.85 -0.22 0 -3.30 0 -3.30 2.85 -0.22 2.77 -0.22 0.22 -18.89 0.15 -18.97 -48.36 0 -48.36 0 0.15 18.97 0.22 18.89 14.85 0.22 14.85 0.15 -0.22 3.22 -0.22 3.15 -14.77 0.22 -14.85 0.15 0 18.74 0 18.74 45.96 0.22 c 25.19 0.07 46.94 0.15 48.14 0.15 l 2.25 0 0 -18.74 z  m 192.69 9.22 l 0.45 -9.97 -0.22 -71.60 -0.22 -71.60 -18.52 -0.22 -18.59 -0.15 -0.15 16.65 -0.22 16.72 -1.80 0.22 c -0.90 0.15 -2.55 0.07 -3.52 -0.15 l -1.80 -0.45 0 -16.50 0 -16.50 -18.14 0.15 -18.14 0.22 -0.52 1.87 -0.52 1.87 -0.07 38.46 -0.07 38.39 -51.36 0 -51.36 0 0 18.37 0 18.37 24.97 0.15 24.89 0.22 0 3.75 0 3.75 -24.89 0.22 -24.97 0.15 0 18.37 0 18.37 51.58 0.22 c 28.34 0.07 69.80 0.22 92.07 0.37 l 40.64 0.15 0.52 -9.90 z  m 239.78 -2.62 l 0.52 -12.45 0 -47.16 0 -47.09 -62.08 0 c -34.19 0 -83.98 -0.22 -110.59 -0.52 l -48.51 -0.45 0 60.06 0 60.13 110.07 0 110.14 0 0.45 -12.52 z  m -540.82 -29.47 l 0 -41.24 -25.49 0 -25.49 0 0 41.24 0 41.24 25.49 0 25.49 0 0 -41.24 z  m -305.91 16.12 l 0 -13.12 -32.39 -0.15 -32.47 -0.22 -0.22 -2.02 -0.22 -2.10 -10.42 0 -10.42 0 -0.22 1.72 -0.22 1.65 -31.49 0 -31.49 0 -0.22 -2.02 -0.22 -2.10 -10.50 0 -10.42 0 0 2.25 0 2.25 -32.62 0 -32.62 0 0 13.50 0 13.50 118.09 0 118.09 0 0 -13.12 z  m -374.89 5.40 l 0 -7.05 -20.77 -0.45 c -11.47 -0.30 -44.69 -0.52 -73.85 -0.52 l -53.08 0 0 7.50 0 7.50 73.85 0 73.85 0 0 -6.97 z  m 119.96 -22.64 l 0 -29.62 -56.23 0 -56.23 0 0 29.62 0 29.62 56.23 0 56.23 0 0 -29.62 z  m -234.83 4.35 c 0.60 -1.57 2.17 -6.75 3.67 -11.47 l 2.62 -8.62 0.07 -11.62 0.15 -11.62 2.40 -5.02 2.32 -5.02 3.07 -3.30 3.07 -3.30 4.65 -2.55 4.72 -2.55 9.75 0 9.75 0 4.72 2.55 4.65 2.55 3.07 3.30 3.07 3.30 2.32 5.02 2.40 5.02 0.07 11.62 0.15 11.62 2.02 7.50 c 1.12 4.12 2.77 9.30 3.67 11.40 l 1.57 3.97 20.47 0 20.39 0 0 -22.04 0 -22.04 0.97 -0.37 c 0.45 -0.15 27.44 -0.15 59.83 0.07 l 58.93 0.37 0.52 -91.70 0.60 -91.62 -0.75 -0.75 -0.75 -0.75 -1.35 0.30 -1.42 0.22 -0.37 67.48 -0.37 67.48 -2.25 0.22 c -1.20 0.15 -6.60 -0.07 -12 -0.60 l -9.75 -0.82 -7.80 -1.50 -7.80 -1.50 -7.95 -2.62 -7.95 -2.62 -8.62 -4.12 -8.62 -4.12 -8.25 -5.55 -8.25 -5.55 -6.75 -5.92 -6.75 -5.92 -5.25 -6.15 c -13.95 -16.42 -23.54 -34.34 -28.87 -54.21 l -2.25 -8.47 -1.12 -7.87 -1.12 -7.87 0 -5.02 0 -5.10 -60.96 0 -61.03 0 -0.52 15.60 -0.52 15.52 0.07 95.22 0.07 95.22 0.45 3.60 0.45 3.52 15.82 0 15.82 0 0.97 -2.77 z  m 62.38 1.65 l -0.90 -1.12 -2.77 -0.75 -2.70 -0.75 -19.57 0 -19.57 0 -2.25 0.45 -2.17 0.45 -1.80 1.42 -1.87 1.42 27.29 0 27.22 0 -0.90 -1.12 z  m -103.24 -21.89 l 0.52 -16.95 0 -94.40 0 -94.32 -59.98 0 -59.98 0 0 111.34 0 111.34 59.46 0 59.53 0 0.45 -17.02 z  m 101.52 10.80 c -1.05 -2.85 -5.70 -21.82 -6.37 -26.02 l -0.67 -4.87 -1.80 -3.75 -1.72 -3.75 -3.52 -3.52 -3.45 -3.45 -3.07 -0.97 -3 -0.90 -2.62 0.52 -2.62 0.45 -3 2.25 -3 2.17 -2.47 3.52 -2.40 3.52 -1.42 4.42 -1.35 4.50 0 2.32 0 2.40 -3 10.72 c -1.65 5.85 -3 10.87 -3 11.02 0 0.22 11.02 0.37 24.44 0.37 l 24.44 0 -0.37 -0.97 z  m 429.10 -19.19 l 0 -16.50 -3.15 -0.22 -3.22 -0.22 -0.22 -2.40 -0.22 -2.47 -52.41 0 -52.41 0 -0.22 2.47 -0.22 2.40 -62.01 0.22 -62.08 0.15 0 16.12 0 16.05 9.97 0.30 c 5.40 0.07 58.56 0.30 118.09 0.37 l 108.12 0.15 0 -16.42 z  m 517.35 -62.46 c 0 -21.97 0.22 -70.85 0.45 -108.64 l 0.45 -68.68 -24.22 -0.45 -24.29 -0.52 -83.38 0 -83.45 0 0 2.17 c 0 1.20 -0.22 3.22 -0.45 4.50 l -0.45 2.32 -14.55 0 -14.55 0 0 -3.37 0 -3.37 11.25 0 11.25 0 0 -1.12 0 -1.12 -42.36 0 -42.36 0 0 0.60 0 0.67 7.35 0.45 c 3.97 0.30 8.85 0.52 10.87 0.52 l 3.52 0 0 3.37 0 3.37 -14.62 0 -14.62 0 0 -4.50 0 -4.42 -5.40 -0.22 -5.47 -0.22 0 -70.85 0 -70.85 91.70 -0.22 91.62 -0.15 0.22 -58.33 c 0.22 -78.20 0.22 -76.93 0.37 -83.53 l 0.15 -5.85 9 0 9 0 0 5.62 0 5.62 2.17 0 2.10 0 0.45 -8.40 0.37 -8.47 1.65 -7.87 1.57 -7.87 2.62 -7.87 2.55 -7.87 5.25 -10.50 5.25 -10.50 4.80 -6.75 4.87 -6.75 6.15 -6.60 c 7.27 -7.87 15.97 -15.30 24.67 -21.07 l 6.37 -4.27 8.25 -4.05 8.25 -4.05 7.80 -2.70 7.87 -2.70 9.15 -1.80 9.15 -1.87 7.95 -0.52 7.95 -0.45 0 -11.85 0 -11.77 -1.50 -8.92 c -1.95 -11.25 -4.35 -19.64 -8.55 -29.69 l -3.37 -8.02 -4.12 -7.05 c -7.42 -12.52 -16.35 -23.47 -26.69 -32.54 l -6.37 -5.55 -7.72 -5.17 -7.80 -5.25 -7.57 -3.67 -7.65 -3.67 -8.02 -2.70 c -8.55 -2.85 -19.04 -5.25 -26.62 -6.07 l -4.72 -0.52 -0.15 66.28 -0.22 66.28 -2.02 0.22 -2.10 0.22 0 4.65 0 4.65 -0.60 0.97 -0.60 0.90 -14.25 -0.15 -14.17 -0.22 0.30 -217.21 0.30 -217.29 -29.77 0 -29.69 0 0 1.35 c 0 0.67 0.67 5.17 1.50 9.90 0.82 4.72 1.50 10.05 1.50 11.85 l 0 3.15 -1.50 0 -1.50 0 0 41.46 c 0 22.72 -0.22 57.88 -0.52 77.98 l -0.45 36.59 -3.07 -0.22 -3.07 -0.22 -0.22 -77.75 -0.15 -77.83 -1.50 0 -1.50 0 0 -2.40 c 0 -1.35 0.82 -7.20 1.80 -12.97 0.97 -5.77 1.72 -10.57 1.65 -10.65 -0.07 -0.07 -16.42 -0.37 -36.29 -0.67 l -36.14 -0.52 0 -2.40 0 -2.40 -42.14 -0.45 c -23.24 -0.30 -67.11 -0.52 -97.47 -0.52 l -55.26 0 -0.22 2.85 -0.22 2.77 -100.92 -0.30 -100.92 -0.30 -0.45 110.89 c -0.30 61.03 -0.52 170.13 -0.52 242.48 0 72.35 -0.22 151.61 -0.52 176.05 l -0.45 44.39 -37.41 0 -37.34 0 0 5.62 0 5.62 -10.42 0 -10.50 0 -8.47 1.12 -8.47 1.12 -7.05 1.87 c -3.82 1.05 -10.35 3.22 -14.40 4.80 l -7.42 2.92 -7.05 3.90 -7.05 3.90 -7.87 5.85 -7.80 5.92 -7.05 7.42 -7.05 7.42 -5.02 7.05 -5.02 7.05 -4.57 9 -4.50 9 -2.55 7.87 c -2.85 8.70 -4.80 17.39 -5.47 24.52 l -0.45 4.72 63.28 0.15 63.28 0.22 0.22 2.02 0.22 2.02 5.40 0.22 5.40 0.22 -0.30 173.35 -0.30 173.35 3.30 0.22 3.30 0.22 0.22 2.85 0.22 2.77 55.11 0 55.03 0 0 -2.62 0 -2.62 0.97 -0.15 c 0.45 0 44.99 0 98.97 0.15 l 98 0.22 0 -1.80 c 0 -0.97 0.37 -5.47 0.75 -10.05 l 0.82 -8.25 1.80 -8.77 1.80 -8.77 2.70 -8.10 2.70 -8.10 4.35 -9 4.42 -9 4.42 -6.75 c 6.45 -9.82 13.05 -17.84 20.77 -25.42 l 6.75 -6.60 7.27 -5.47 c 13.57 -10.20 27.44 -17.47 43.41 -22.79 l 7.12 -2.40 9 -1.80 9 -1.87 12.07 -0.90 12 -0.90 1.27 0.52 1.27 0.45 0 72.80 0 72.73 1.87 0 1.80 0 0.22 -5.40 0.22 -5.47 9 0 9 0 0.22 11.10 0.22 11.02 28.04 0 28.04 0 0.22 -1.65 0.22 -1.72 54.36 -0.37 c 29.92 -0.22 54.81 -0.22 55.33 -0.07 l 0.90 0.22 0 2.17 0 2.17 47.61 0 47.61 0 0 -39.89 z  m 330.05 -2.25 l 0.22 -5.47 21.59 -0.22 21.52 -0.15 0 -17.84 0 -17.84 -3.90 -1.57 c -2.17 -0.90 -7.72 -2.62 -12.30 -3.90 l -8.32 -2.32 -7.42 0.45 -7.42 0.52 -4.50 -0.97 -4.50 -0.90 -3.82 -1.80 -3.82 -1.80 -3.37 -2.92 -3.30 -3 -2.47 -4.57 -2.47 -4.57 -0.75 -5.25 -0.67 -5.32 0.82 -5.25 0.75 -5.17 1.95 -3.82 1.87 -3.75 3.30 -3.22 3.22 -3.30 4.42 -2.25 4.42 -2.17 4.87 -0.90 4.80 -0.90 7.50 0.45 7.50 0.52 9 -2.62 c 4.95 -1.42 10.27 -3 11.85 -3.60 l 2.77 -0.97 0 -19.64 0 -19.72 -12.90 0 c -7.12 0 -16.80 -0.22 -21.37 -0.52 l -8.47 -0.45 0 -59.91 0 -59.83 -22.49 0 -22.49 0 -0.15 63.58 -0.22 63.51 -11.25 -0.07 -11.25 -0.07 -7.80 -1.65 c -4.27 -0.90 -11.02 -2.70 -15 -3.90 l -7.20 -2.32 -9 -4.35 -9 -4.35 -6.37 -4.27 c -3.52 -2.40 -9.22 -6.67 -12.67 -9.67 l -6.37 -5.32 -5.92 -6.75 -5.85 -6.75 -4.57 -6.75 -4.50 -6.67 -3.97 -7.95 c -4.95 -9.82 -7.95 -18.29 -10.42 -29.32 l -1.87 -8.55 -0.82 -8.62 c -0.37 -4.72 -0.75 -8.85 -0.75 -9.15 l 0 -0.60 -20.47 0 -20.54 0 -0.45 72.58 c -0.30 39.89 -0.52 103.09 -0.52 140.51 l 0 68.08 57.96 0.22 c 31.79 0.07 81.58 0.22 110.52 0.37 l 52.63 0.15 0.22 -5.40 z  m -1117.85 -44.61 c 0.30 -21.67 0.52 -51.88 0.52 -67.11 l 0 -27.59 2.25 0 2.25 0 0 -5.62 0 -5.62 5.62 0 5.62 0 0 -79.85 0 -79.85 -63.51 -0.15 -63.58 -0.22 0.07 -8.77 0.07 -8.77 0.90 -6.22 c 2.85 -19.42 9.67 -37.11 21.14 -54.28 l 5.47 -8.10 8.25 -8.55 8.32 -8.55 6.75 -5.02 c 8.32 -6.22 13.95 -9.67 23.09 -13.95 l 7.05 -3.37 8.17 -2.62 8.17 -2.70 8.25 -1.42 c 4.50 -0.75 11.40 -1.65 15.15 -1.87 l 6.90 -0.60 0.22 -10.95 0.22 -10.95 37.19 -0.22 37.19 -0.15 0.45 -230.71 c 0.30 -126.86 0.52 -266.85 0.52 -311.01 l 0 -80.38 -173.72 -0.45 c -95.60 -0.30 -201.32 -0.52 -234.98 -0.52 l -61.26 0 -0.45 44.46 c -0.22 24.37 -0.60 164.43 -0.90 311.16 l -0.45 266.70 41.16 0 c 22.57 0 77.75 0.22 122.66 0.52 l 81.50 0.45 0 59.16 0 59.08 -8.55 0 -8.55 0 -7.72 0.82 c -10.20 0.97 -20.09 3.22 -29.47 6.45 l -7.57 2.62 -7.35 3.67 c -18.67 9.37 -34.11 22.57 -46.64 40.04 l -4.87 6.75 -4.80 9.75 -4.87 9.75 -2.55 8.25 -2.62 8.25 -1.20 7.50 c -0.67 4.12 -1.42 8.40 -1.57 9.60 l -0.30 2.02 58.63 0.07 58.63 0.07 4.87 0.52 4.87 0.45 0.22 2.02 0.22 2.02 5.40 0.22 5.40 0.22 0.22 38.46 0.15 38.39 4.87 0 4.80 0 0.37 0.60 c 0.15 0.30 0.60 6.45 0.82 13.65 l 0.52 13.12 1.42 8.25 c 1.72 10.57 4.42 19.64 8.70 29.84 l 3.37 8.10 4.65 7.65 c 6.07 10.12 10.50 15.90 19.12 24.82 l 7.20 7.35 6.30 4.95 6.30 4.95 7.72 4.65 7.72 4.65 8.10 3.37 c 4.42 1.87 11.17 4.35 14.85 5.40 6.67 1.95 20.69 4.72 24.44 4.80 l 1.95 0.07 0.45 -39.51 z  m 1183.15 -3.37 c 0.30 -23.24 0.52 -56.98 0.52 -74.98 l 0 -32.84 -7.50 0 -7.50 0 0 74.53 0 74.60 1.35 0.30 c 0.67 0.22 3.82 0.37 6.97 0.45 l 5.70 0.07 0.45 -42.14 z  m -349.77 -1.95 l 0.22 -11.47 3.15 0.22 3.15 0.22 0.22 11.47 0.22 11.40 18.59 0 18.59 0 0.45 -41.01 0.45 -41.01 -0.37 -0.60 -0.37 -0.60 -18.74 0 -18.67 0 0 19.49 0 19.49 -3.37 0 -3.37 0 0 -19.49 0 -19.49 -19.12 0 -19.12 0 0 41.09 0 41.16 0.52 0.52 0.52 0.45 18.37 -0.15 18.44 -0.22 0.22 -11.47 z  m 327.58 -41.39 l -0.15 -15.37 -1.50 2.25 -1.50 2.17 -0.22 22.34 -0.22 22.34 1.35 2.85 1.35 2.77 0.52 -12 0.60 -12 -0.22 -15.37 z  m -11.47 32.54 l 0.45 -3.52 0 -20.47 0 -20.54 -0.52 0 c -0.37 0 -5.17 1.12 -10.72 2.55 -5.55 1.42 -12.97 3.15 -16.35 3.75 l -6.30 1.12 -4.20 2.47 -4.12 2.47 -2.32 3.22 c -1.27 1.80 -2.70 4.42 -3.22 5.85 l -0.90 2.55 0.82 2.47 c 0.45 1.27 1.80 3.75 2.92 5.47 l 2.02 3 3 2.10 c 1.65 1.12 4.65 2.62 6.67 3.45 l 3.75 1.42 4.50 0.45 4.57 0.52 8.55 2.47 c 4.65 1.35 9 2.47 9.67 2.55 l 1.20 0.07 0.52 -3.45 z  m -316.11 -78.05 l 0.22 -8.47 3.30 0 3.30 0 0.22 8.47 0.22 8.40 18.22 0.22 18.14 0.15 0.30 -0.90 c 0.22 -0.52 0.52 -33.97 0.75 -74.23 l 0.45 -73.33 -116.07 -0.15 -115.99 -0.22 -0.22 -16.57 -0.15 -16.57 -19.27 -0.45 -19.19 -0.52 -68.90 0 -68.83 0 0 35.99 0 35.99 1.87 0 1.87 0 0 -12.75 0 -12.75 15.07 0 15 0 -0.22 3.97 -0.22 3.90 -11.02 0.22 -11.10 0.22 0 8.55 0 8.62 16.72 0.15 16.65 0.22 0.22 3.45 0.22 3.45 -5.77 0.45 c -3.15 0.30 -13.35 0.52 -22.57 0.52 l -16.72 0 0 23.62 0 23.62 1.50 0 1.50 0 0 -5.77 0 -5.85 0.67 -0.97 0.60 -0.97 3.30 0.22 3.30 0.22 0.22 6.60 0.22 6.52 41.91 0 41.99 0 0 -5.77 0 -5.85 0.67 -0.97 0.60 -0.97 3.30 0.22 3.30 0.22 0.22 6.60 0.22 6.52 110.14 0 110.07 0 1.20 0.45 1.20 0.45 0 26.77 0 26.84 0.52 0.52 0.52 0.45 17.99 -0.15 18.07 -0.22 0.22 -8.40 z  m -985.81 -30.22 l 0 -15.75 -20.02 -0.15 -20.09 -0.22 -0.22 -2.02 -0.22 -2.10 -10.42 0 -10.42 0 -0.22 2.10 -0.22 2.02 -31.12 0 -31.12 0 -0.22 -2.02 -0.22 -2.10 -10.87 0 -10.80 0 0 1.80 0 1.80 -23.02 0.30 -23.09 0.30 -0.60 -0.45 -0.52 -0.45 0.15 -28.12 0.22 -28.04 2.10 -0.22 2.02 -0.22 0 -10.42 0 -10.42 -2.02 -0.22 -2.10 -0.22 0 -31.12 0 -31.12 2.10 -0.22 2.02 -0.22 0 -10.42 0 -10.42 -1.65 -0.22 -1.72 -0.22 -0.37 -27.74 -0.37 -27.74 0.75 -0.75 0.75 -0.82 23.09 0.30 23.02 0.30 0 2.17 0 2.17 10.42 0 10.50 0 0.22 -2.02 0.22 -2.10 31.34 -0.22 31.27 -0.15 0 2.25 0 2.25 10.87 0 10.87 0 0 -2.25 0 -2.25 19.79 0 19.79 0 0.52 -8.40 0.45 -8.47 -0.22 -15 -0.22 -15 -113.37 -0.22 -113.44 -0.15 0 64.71 c 0 35.61 -0.22 102.79 -0.52 149.21 l -0.45 84.50 113.67 0 113.74 0 0 -15.75 z  m 1214.04 -52.63 l 0.22 -63.21 2.02 -0.22 2.02 -0.22 0.22 -5.40 0.22 -5.40 16.35 -0.22 16.27 -0.15 0 -52.86 0 -52.78 -2.02 -0.22 -2.10 -0.22 -0.22 -56.76 -0.15 -56.76 -6.22 -0.22 -6.15 -0.22 -0.22 -9.15 -0.22 -9.22 51.28 0 51.36 0 0.45 -100.62 c 0.22 -55.41 0.60 -180.17 0.75 -277.34 l 0.30 -176.65 -259.35 -0.60 c -142.68 -0.30 -259.57 -0.45 -259.72 -0.22 -0.22 0.15 -0.60 109.02 -0.82 241.88 l -0.52 241.58 1.95 0 2.02 0 0 -66.36 0 -66.43 1.27 -0.45 1.20 -0.45 11.32 0.82 11.32 0.90 7.50 1.57 7.50 1.50 7.87 2.62 7.87 2.62 8.25 3.97 c 22.64 10.87 40.56 26.69 54.66 48.21 l 5.02 7.65 3.60 7.72 3.67 7.72 2.62 8.25 2.62 8.25 1.57 8.17 1.57 8.17 0.52 7.72 0.45 7.72 10.95 0.22 10.95 0.22 0.22 35.46 0.15 35.39 18.22 0 c 9.97 0 33.07 0.22 51.36 0.52 l 33.14 0.45 0 8.92 0 8.85 -10.12 0 -10.12 0 0 53.53 0 53.61 3.22 0.22 3.15 0.22 -0.15 56.01 -0.07 56.08 12.45 0.15 12.52 0.22 0.45 13.50 0.52 13.50 1.20 6.90 c 5.10 28.72 18.89 53.53 40.71 73.10 l 5.85 5.25 7.80 5.17 7.80 5.25 7.57 3.67 7.57 3.60 8.55 2.70 8.55 2.77 7.95 1.42 c 4.35 0.75 8.70 1.42 9.60 1.42 l 1.72 0.07 0.15 -63.13 z  m 122.06 0.15 l 0 -56.23 -28.87 0 -28.87 0 0 55.86 0 55.86 26.47 0.22 c 14.47 0.07 27.52 0.22 28.87 0.37 l 2.40 0.15 0 -56.23 z  m -1336.11 11.25 l 0 -13.50 -63.51 -0.15 -63.58 -0.22 0.15 -10.50 0.07 -10.50 1.95 -9.45 1.87 -9.37 2.70 -7.80 c 4.50 -12.82 10.50 -23.99 19.19 -35.61 l 5.02 -6.75 8.17 -7.87 8.17 -7.87 7.05 -5.02 7.12 -5.02 9 -4.57 9 -4.50 7.95 -2.62 c 4.35 -1.42 11.32 -3.30 15.37 -4.20 l 7.42 -1.50 8.47 -0.45 8.40 -0.45 0 -17.02 0 -17.02 -51.88 -0.45 c -28.49 -0.30 -69.35 -0.52 -90.72 -0.52 l -38.84 0 0 98.22 0 98.22 90.72 0 90.72 0 0 -13.50 z  m 1297.87 -163.30 c 0 -42.44 0.22 -91.85 0.52 -109.84 l 0.45 -32.77 -19.94 0 -20.02 0 0 53.61 0 53.61 3.37 0 3.37 0 0 56.23 0 56.23 16.12 0 16.12 0 0 -77.08 z  m 38.99 -32.77 l 0 -109.84 -13.50 0 -13.50 0 0 28.49 0 28.49 -2.25 0 -2.25 0 0 10.42 0 10.50 2.10 0.22 2.02 0.22 0.22 31.34 0.15 31.27 -2.25 0 -2.25 0 0 10.87 0 10.87 2.25 0 2.25 0 0 28.49 0 28.49 13.50 0 13.50 0 0 -109.84 z  m -371.14 38.61 l 0 -70.48 -5.62 0 -5.62 0 0 -5.55 0 -5.62 -2.02 -0.22 -2.10 -0.22 -0.22 -66.21 -0.15 -66.21 -3.60 0.45 c -29.39 3.90 -51.88 13.87 -73.40 32.54 l -6.15 5.40 -5.40 6.15 -5.32 6.15 -5.55 8.25 -5.47 8.32 -3.75 7.80 -3.67 7.87 -2.70 8.47 -2.77 8.55 -1.50 9.07 -1.57 9.15 -0.52 12.75 -0.45 12.75 -5.40 0.22 -5.47 0.22 0 70.03 0 70.03 2.10 0.30 c 1.12 0.15 34.49 0.37 74.23 0.45 l 72.13 0.07 0 -70.48 z  m 53.23 41.99 l 0 -28.49 2.25 0 2.25 0 0 -10.42 0 -10.50 -2.02 -0.22 -2.10 -0.22 0 -31.12 0 -31.12 2.10 -0.22 2.02 -0.22 0 -10.80 0 -10.80 -2.02 -0.22 -2.10 -0.22 -0.22 -28.27 -0.15 -28.34 -17.24 0 -17.24 0 0 55.71 c 0 30.67 -0.22 80.08 -0.52 109.84 l -0.45 54.13 17.69 0 17.77 0 0 -28.49 z  m 40.49 -23.92 l 0 -52.48 -2.02 -0.22 -2.10 -0.22 -0.22 -57.13 -0.15 -57.21 -12 0 -12 0 0 109.84 0 109.84 14.25 0 14.25 0 0 -52.41 z  m -93.72 -172.90 l 0 -65.61 -1.87 0 -1.87 0 0 65.61 0 65.61 1.87 0 1.87 0 0 -65.61 z  m -506.70 -517.12 l 0.22 -2.47 170.42 0.15 170.35 0.15 0 -47.54 0 -47.61 -268.05 0 -268.05 0 0 49.86 0 49.86 97.40 0 97.47 0 0.22 -2.40 z "/>
  <path d="M 1607.68 1305.22 l 0.22 -58.71 25.49 0 25.49 0 0.22 58.71 0.15 58.63 -25.87 0 -25.87 0 0.15 -58.63 z  m 44.09 31.42 c 0 -10.87 0.22 -33.97 0.52 -51.36 l 0.45 -31.64 -18.74 0 -18.82 0 -0.45 1.72 -0.45 1.65 0 49.71 0 49.64 18.74 0 18.74 0 0 -19.72 z "/>
  <path d="M 1129.32 1328.46 l 0.22 -3.22 3.22 -0.22 3.15 -0.22 0 3.37 0 3.45 -3.45 0 -3.37 0 0.22 -3.15 z "/>
  <path d="M 1241.71 1331.31 l -0.90 -1.12 0.22 -2.47 0.22 -2.47 34.64 -0.22 34.71 -0.15 0.15 -31.72 0.22 -31.64 3.60 -0.22 3.52 -0.22 -0.15 35.46 -0.22 35.46 -37.56 0.22 -37.56 0.15 -0.90 -1.05 z "/>
  <path d="M 1479.62 1366.17 l -94.47 -0.45 -3.07 -2.02 -3 -1.95 -1.20 -2.62 -1.27 -2.62 0 -46.64 0 -46.64 1.27 -2.62 1.20 -2.62 3 -1.95 3.07 -2.02 98.60 0.22 98.67 0.30 2.92 1.57 3 1.65 1.72 3.37 1.80 3.30 -0.22 46.56 -0.22 46.49 -1.80 2.85 -1.72 2.85 -2.85 1.42 -2.92 1.50 -3.97 0.22 c -2.17 0.15 -46.49 0.07 -98.52 -0.15 z  m 98.15 -7.87 l 2.40 -0.97 1.87 -2.02 1.87 -2.10 0.22 -17.17 0.22 -17.24 -1.50 0.75 -1.50 0.82 -4.95 0 -5.02 0 -2.55 -2.55 -2.55 -2.55 0 -5.02 0 -5.02 2.55 -2.55 2.55 -2.55 5.02 0 4.95 0 1.50 0.75 1.42 0.82 0 -16.65 0 -16.57 -1.20 -2.10 -1.27 -2.02 -2.32 -1.42 -2.32 -1.42 -93.87 0 -93.80 0 -2.02 1.87 -2.10 1.87 -0.97 2.40 -1.05 2.40 0 40.56 0 40.56 1.05 2.02 c 0.60 1.12 1.80 2.70 2.62 3.45 l 1.65 1.50 3.15 0.52 3.15 0.45 90.20 0.15 90.20 0.07 2.40 -1.05 z  m 0.82 -47.16 l 0.82 -1.27 -1.27 -1.27 -1.27 -1.27 -1.57 1.42 -1.50 1.35 1.27 1.42 1.27 1.35 0.75 -0.22 c 0.37 -0.15 1.05 -0.82 1.50 -1.50 z "/>
  <path d="M 424.45 1350.73 l -4.72 -1.05 -4.72 -2.25 -4.80 -2.17 -3.45 -3.22 -3.52 -3.22 -1.57 -3.07 -1.65 -3 0 -7.12 0 -7.12 2.02 -3.52 2.10 -3.45 3.15 -2.70 3.15 -2.77 3.82 -1.80 c 2.02 -1.05 5.92 -2.40 8.62 -3.07 l 4.87 -1.27 9.37 0 9.37 0 4.80 1.20 4.80 1.27 5.17 2.77 5.17 2.70 2.55 3 c 1.35 1.57 3.15 4.20 3.90 5.70 l 1.35 2.70 0 6.75 -0.07 6.75 -1.57 3 -1.57 3.07 -3.52 3.22 -3.45 3.22 -4.72 2.17 -4.72 2.17 -5.17 1.12 -5.17 1.12 -7.50 -0.07 -7.50 -0.07 -4.80 -0.97 z  m 20.54 -7.12 l 2.25 -0.60 -10.12 0 -10.12 0 2.25 0.60 2.25 0.60 5.62 0 5.62 0 2.25 -0.60 z  m -13.87 -9.45 c 0 -1.05 0.37 -2.55 0.75 -3.37 l 0.82 -1.42 4.42 0 4.42 0 0.82 1.42 c 0.37 0.82 0.75 2.32 0.75 3.37 l 0 1.95 5.10 0 5.17 0 3 -2.17 3 -2.17 1.65 -2.70 1.65 -2.70 -0.45 -1.57 c -0.30 -0.90 -1.72 -2.92 -3.30 -4.65 l -2.70 -3 -4.35 -2.10 -4.42 -2.10 -5.25 -0.90 -5.25 -0.97 -4.80 0.82 -4.72 0.82 -4.35 2.02 -4.35 1.95 -2.77 2.70 -2.77 2.70 -0.82 2.10 -0.90 2.10 1.65 2.77 1.72 2.70 3 2.17 3 2.17 5.17 0 5.10 0 0 -1.95 z "/>
  <path d="M 109.02 1322.69 l -3.07 -1.42 -1.80 -2.47 -1.80 -2.55 -0.22 -98.67 -0.15 -98.60 1.72 -3.37 1.80 -3.30 2.92 -1.65 2.92 -1.72 46.11 0 46.11 0 3.07 1.42 3.07 1.35 1.57 2.10 1.65 2.10 0.82 3.07 0.82 3.07 -0.37 95.97 -0.30 95.97 -1.20 2.70 -1.12 2.70 -2.85 2.17 -2.77 2.17 -46.94 0.15 -46.94 0.22 -3.07 -1.42 z  m 39.44 -7.50 l -0.75 -1.50 0 -4.72 0 -4.80 1.20 -1.72 1.27 -1.72 2.47 -1.05 2.47 -1.05 2.70 0 2.70 0 2.47 1.05 2.47 1.05 1.27 1.72 1.20 1.72 0 4.80 0 4.72 -0.75 1.50 -0.82 1.42 16.57 0 16.57 0 2.10 -1.05 2.10 -1.12 1.42 -2.10 1.42 -2.10 0.22 -93.57 0.15 -93.65 -1.50 -2.47 -1.50 -2.47 -2.47 -0.97 -2.40 -1.05 -41.24 0 -41.24 0 -2.32 1.42 -2.32 1.42 -1.12 1.95 -1.20 1.95 -0.22 93.72 -0.30 93.72 1.27 1.80 c 0.67 0.97 2.25 2.40 3.37 3.15 l 2.10 1.42 16.72 0 16.72 0 -0.82 -1.42 z  m 11.25 -7.12 c -1.20 -1.50 -2.55 -1.50 -3.75 -0.07 l -0.97 1.12 1.35 1.57 1.42 1.50 1.50 -1.50 1.42 -1.50 -0.97 -1.12 z "/>
  <path d="M 1030.20 647.43 l 0 -3.37 14.25 0 14.25 0 -0.37 -1.65 c -1.05 -4.80 -3.37 -20.24 -3.37 -22.64 l 0 -2.70 1.35 0 1.42 0 0.45 -18.52 c 0.30 -10.27 0.52 -45.14 0.52 -77.60 l 0 -59.08 3.37 0 3.37 0 0 77.60 0 77.60 1.50 0 1.50 0 0 3.22 c 0 1.72 -0.82 7.80 -1.80 13.42 l -1.72 10.35 26.32 0.15 26.32 0.22 0 3 0 3 -43.64 0.22 -43.71 0.15 0 -3.37 z "/>
  <path d="M1306.57 1180.30 C 1306.57 1188.78 1299.67 1195.67 1291.20 1195.67 1282.72 1195.67 1275.83 1188.78 1275.83 1180.30 1275.83 1171.83 1282.72 1164.93 1291.20 1164.93 1299.67 1164.93 1306.57 1171.83 1306.57 1180.30 Z M1284.82 1194.40  m 9.90 -7.95 l 1.65 -1.12 1.20 -2.32 1.20 -2.25 -0.45 -1.65 -0.37 -1.65 -2.10 -1.95 c -1.12 -1.05 -2.77 -2.10 -3.60 -2.40 l -1.50 -0.45 -2.40 1.50 -2.40 1.42 -1.27 1.87 -1.20 1.95 0.45 1.95 0.52 2.02 2.32 2.17 2.25 2.10 2.02 0 2.02 0 1.65 -1.20 z "/>
  <path d="M 1328.98 1194.10 l -2.32 -0.97 -2.02 -2.40 -2.02 -2.47 -0.45 -1.80 -0.45 -1.80 0.22 -5.92 0.30 -6 2.25 -2.32 c 1.27 -1.35 3.15 -2.85 4.27 -3.45 l 2.02 -1.05 5.47 0 5.47 0 2.55 1.57 c 1.42 0.82 3.15 2.25 3.90 3.15 l 1.35 1.65 0.82 3.90 0.82 3.90 -0.52 3.45 -0.45 3.45 -1.65 2.32 c -0.82 1.27 -2.55 3.07 -3.67 3.90 l -2.10 1.57 -5.77 0.22 -5.77 0.15 -2.25 -1.05 z  m 11.62 -8.62 l 2.17 -2.10 0.52 -2.10 0.52 -2.02 -1.50 -1.95 c -0.82 -1.12 -2.55 -2.62 -3.90 -3.37 l -2.32 -1.42 -2.40 1.42 -2.40 1.42 -1.42 2.40 -1.42 2.47 0.90 2.25 0.97 2.25 1.87 1.42 1.87 1.50 2.17 0 2.25 0 2.10 -2.17 z "/>
  <path d="M 1283.62 1148.51 l -3.37 -1.72 -1.65 -2.55 -1.72 -2.55 0 -6 0 -5.92 1.57 -2.85 1.57 -2.85 3 -1.65 2.92 -1.65 6.15 0.30 6.15 0.22 2.47 1.72 2.40 1.80 1.20 2.25 1.20 2.32 0.37 4.27 0.45 4.27 -0.97 2.92 -0.90 2.92 -2.02 2.17 -1.95 2.10 -2.40 1.05 -2.40 1.05 -4.42 0 -4.35 0 -3.30 -1.65 z  m 12.45 -8.55 l 2.55 -2.62 0 -1.87 0 -1.80 -2.40 -2.55 -2.47 -2.55 -1.50 -0.45 -1.50 -0.45 -2.40 1.50 -2.40 1.42 -1.20 2.32 -1.20 2.32 0.45 1.42 c 0.22 0.82 1.50 2.47 2.70 3.75 l 2.32 2.25 2.25 0 2.32 0 2.47 -2.70 z "/>
  <path d="M1351.70 1135.47 C 1351.70 1144.01 1344.80 1150.84 1336.33 1150.84 1327.78 1150.84 1320.96 1144.01 1320.96 1135.47 1320.96 1126.99 1327.78 1120.10 1336.33 1120.10 1344.80 1120.10 1351.70 1126.99 1351.70 1135.47 Z M1329.36 1149.34  m 12.67 -10.12 l 1.57 -2.02 0 -1.65 0 -1.65 -1.57 -2.02 -1.57 -1.95 -2.17 -1.20 -2.25 -1.12 -2.40 1.35 -2.32 1.42 -1.50 2.47 -1.50 2.55 1.50 2.62 1.42 2.62 2.55 1.35 2.55 1.35 2.10 -1.05 c 1.12 -0.60 2.77 -2.02 3.60 -3.07 z "/>
  <path d="M 1311.89 1070.99 l -0.52 -0.52 0 -31.79 0 -31.72 -22.27 -0.15 -22.34 -0.22 0 -3.37 0 -3.37 25.87 0 25.87 0 0.22 27.74 0.15 27.74 -0.52 7.87 -0.60 7.87 -2.62 0.22 -2.70 0.22 -0.52 -0.52 z "/>
  <path d="M 1175.65 1043.77 l -33.44 -0.45 -2.17 -1.42 c -1.20 -0.82 -2.77 -2.17 -3.52 -3 l -1.27 -1.57 -0.75 -3.15 -0.82 -3.15 0 -12 0 -12.07 -17.02 0 -17.09 0 -0.97 -0.67 -0.97 -0.60 0.22 -2.92 0.22 -2.92 18.29 -0.22 18.29 -0.15 -0.45 -8.85 -0.52 -8.85 0.82 -2.77 0.75 -2.70 1.95 -2.32 1.87 -2.32 2.32 -1.20 2.32 -1.12 40.79 0.07 40.71 0.15 2.02 0.75 2.02 0.75 2.47 2.40 2.40 2.32 0.75 2.70 0.75 2.62 0 9.15 0 9.15 4.72 0.22 4.65 0.22 0 3.37 0 3.37 -4.65 0.22 -4.57 0.22 -0.30 14.10 -0.22 14.10 -2.02 3 -1.95 3 -2.92 1.42 -2.85 1.35 -8.25 0.07 c -4.50 0.07 -23.24 -0.07 -41.61 -0.30 z  m 12.22 -11.85 c 0.30 -2.85 0.52 -9.60 0.52 -15 l 0 -9.97 -1.12 0 -1.12 0 0 15 0 15 0.67 0 0.60 0 0.45 -5.02 z  m -8.85 -2.02 l 0.52 -2.47 -0.30 -19.94 -0.22 -19.94 -1.57 -2.10 -1.50 -2.10 -2.62 -1.35 -2.55 -1.27 -12.37 0.15 -12.37 0.22 -0.22 9.22 -0.22 9.15 7.57 0 7.57 0 -0.22 3.60 -0.22 3.52 -7.27 0.22 -7.35 0.22 0 12.22 0 12.22 0.52 0.45 0.45 0.52 15.97 0 15.97 0 0.45 -2.55 z  m 42.66 0.90 c 0.22 -0.97 0.45 -6.67 0.45 -12.75 l 0 -11.10 -13.50 0 -13.50 0 0 12.75 0 12.75 13.05 0 13.05 0 0.45 -1.65 z  m -33.59 -36.06 l 0.07 -4.65 1.12 -2.25 c 1.50 -2.85 4.12 -5.32 6.82 -6.30 l 2.10 -0.82 14.02 0 13.95 0 -1.57 -1.57 -1.57 -1.57 -3.22 -0.67 -3.30 -0.60 -17.47 -0.07 -17.47 0 2.10 2.77 2.10 2.70 0.22 8.92 0.30 8.85 0.82 0 0.90 0 0.07 -4.72 z  m 14.02 0.07 c -0.15 -2.62 -0.37 -5.25 -0.45 -5.85 l -0.15 -1.12 -2.85 2.62 -2.85 2.62 -0.45 3.22 -0.45 3.15 3.75 0 3.67 0 -0.22 -4.65 z  m 20.02 -0.45 l 0 -5.10 -0.90 -0.90 -0.90 -0.90 -1.57 0 -1.57 0 0.30 4.42 0.30 4.35 -0.82 1.65 -0.90 1.57 3.07 0 3 0 0 -5.10 z "/>
  <path d="M 1039.42 1006.43 l -25.72 -0.22 0 -3.37 0 -3.37 15 0 15 0 0 -9.37 0 -9.37 -11.25 0 -11.25 0 0 -3.37 0 -3.37 14.85 0.15 14.77 0.22 0.22 12.60 0.15 12.52 12.75 0 12.75 0 0 3.30 0 3.30 -1.20 0.45 -1.20 0.45 -4.57 -0.15 c -2.55 -0.15 -16.20 -0.30 -30.29 -0.37 z "/>
  <path d="M 1626.80 1054.94 c -1.57 -0.45 -3.75 -1.20 -4.87 -1.80 l -2.10 -1.05 -3.45 -3.75 -3.45 -3.67 -1.65 -3.15 -1.57 -3.22 -1.50 -5.62 -1.42 -5.70 0 -9.07 0 -9.07 1.12 -4.72 1.12 -4.65 2.25 -4.50 2.32 -4.57 2.62 -2.92 2.62 -2.92 3.90 -1.87 3.82 -1.95 6.07 0 6.07 0 3.82 1.95 3.90 1.87 2.62 2.92 c 2.92 3.30 5.17 7.35 7.35 13.50 l 1.50 4.12 0.37 10.50 0.37 10.50 -1.20 5.10 -1.20 5.10 -1.87 4.05 -1.95 4.05 -3.37 3.75 -3.30 3.67 -3.30 1.57 -3.22 1.65 -4.80 0.30 -4.80 0.30 -2.85 -0.67 z  m 13.72 -17.39 l 2.25 -3.07 0 -5.55 0 -5.47 -2.47 0 -2.47 0 -0.90 -0.90 -0.90 -0.90 0 -3.97 0 -3.90 1.42 -0.82 c 0.82 -0.37 2.32 -0.75 3.37 -0.75 l 1.95 0 0 -5.77 0 -5.70 -3.97 -4.05 -4.05 -3.97 -2.02 0 -1.95 0 -3.37 3.07 -3.37 3.15 -2.25 4.65 -2.17 4.57 -0.82 5.25 -0.82 5.25 1.12 5.25 1.05 5.25 1.65 3.45 1.57 3.45 2.40 2.70 2.40 2.70 2.17 1.05 2.17 1.12 2.92 -1.50 2.85 -1.50 2.25 -3.07 z  m 10.57 -19.72 l 0 -6 -0.67 -2.25 -0.75 -2.25 0 10.50 0 10.50 0.75 -2.25 0.67 -2.25 0 -6 z "/>
  <path d="M 1171.31 872.22 l 0.22 -48.59 48.21 0.07 48.21 0.07 0.60 0.67 0.60 0.67 -0.37 47.84 -0.37 47.76 -48.59 0 -48.66 0 0.15 -48.51 z  m 90.57 0.15 l 0 -41.61 -41.46 0 -41.54 0 -0.45 28.27 c -0.30 15.52 -0.52 34.04 -0.52 41.16 l 0 13.05 20.47 0.22 c 11.17 0.07 30.07 0.22 41.99 0.37 l 21.52 0.15 0 -41.61 z "/>
 </g>
 <g fill="#ffffff">
  <path d="M 0 729.16 l 0 -729.16 851 0 851 0 0 729.16 0 729.16 -851 0 -851 0 0 -729.16 z  m 896.14 684.17 l 8.55 0 0.82 0.82 0.82 0.82 0.82 -0.45 0.82 -0.52 0 -22.12 0 -22.04 10.50 0 10.57 0 0.45 -1.20 0.45 -1.20 -16.42 -16.42 -16.42 -16.42 -1.12 0 -1.12 0 -16.42 16.42 -16.50 16.50 0.97 1.12 0.97 1.20 9.67 0 9.67 0 0 22.04 0 22.04 0.97 0.37 0.90 0.30 1.27 -0.60 1.27 -0.67 8.47 0 z  m 781.42 -23.69 l 0.45 -1.20 0 -120.41 c 0 -66.28 0.52 -348.42 1.12 -626.97 l 1.12 -506.40 -0.60 -0.60 -0.67 -0.67 -243.60 -0.37 c -133.99 -0.15 -254.85 -0.52 -268.50 -0.75 l -24.97 -0.45 0 -22.79 0 -22.79 -284.54 0 -284.54 0 0 22.42 0 22.49 -244.28 -0.45 -244.35 -0.45 -0.45 10.80 c -0.30 5.92 -0.52 19.12 -0.52 29.32 l 0 18.52 0.75 0.45 0.75 0.45 0 3.75 0 3.67 -0.67 1.35 -0.75 1.27 -1.12 571.71 c -0.60 314.38 -0.90 571.93 -0.75 572.23 l 0.37 0.60 30.59 0 c 16.80 0 45.29 0.22 63.28 0.52 l 32.77 0.45 0.15 13.57 0.22 13.57 76.48 0.45 c 42.06 0.22 167.05 0.60 277.79 0.75 l 201.32 0.30 0.22 -44.84 0.15 -44.76 33.74 0 33.74 0 0 -7.27 c 0 -4.05 0.37 -11.25 0.75 -16.05 l 0.67 -8.62 1.65 -8.25 1.57 -8.17 2.85 -9 2.92 -9 4.87 -9.75 4.80 -9.75 4.27 -6.37 c 7.80 -11.62 19.64 -24.59 30.37 -33.22 15.07 -12.15 35.31 -22.19 54.58 -27.14 8.32 -2.10 21.07 -4.12 26.24 -4.12 l 3.15 0 0 72.73 0 72.73 2.25 0 2.25 0 0 5.62 0 5.62 5.62 0 5.62 0 0 52.18 -0.07 52.26 0.45 0.37 0.37 0.37 219.54 0.52 c 120.71 0.22 275.84 0.52 344.75 0.60 l 125.36 0.15 0.45 -1.20 z "/>
  <path d="M 1619.37 1372.32 l -18.59 -0.22 0 -67.48 0 -67.48 31.12 0 31.12 0 0 67.86 0 67.86 -12.52 -0.15 c -6.97 -0.15 -20.92 -0.30 -31.12 -0.37 z  m 37.49 -67.11 l -0.22 -56.46 -23.24 0 -23.24 0 -0.22 56.46 -0.15 56.38 23.62 0 23.62 0 -0.15 -56.38 z "/>
  <path d="M 1632.12 1358.83 l -20.09 -0.22 0 -51.96 0 -51.88 0.45 -1.65 0.45 -1.72 21.07 0 20.99 0 -0.45 35.01 c -0.30 19.19 -0.52 43.49 -0.52 53.98 l 0 18.97 -0.90 -0.15 c -0.52 -0.15 -9.97 -0.30 -20.99 -0.37 z "/>
  <path d="M 1109.90 1371.57 l -45.96 -0.22 0 -20.99 0 -20.99 14.77 -0.15 14.70 -0.22 0.30 -0.90 0.37 -0.97 -14.92 -0.15 -14.85 -0.22 -0.22 -21.14 -0.15 -21.22 50.61 0 50.61 0 -0.15 21.22 -0.22 21.14 -2.77 0.22 -2.85 0.22 0 1.05 0 1.05 2.85 0.22 2.77 0.22 0 20.99 0 20.99 -4.50 0 c -2.47 0 -25.19 -0.07 -50.39 -0.15 z  m 23.77 -43.41 l 0 -1.20 -0.90 0.30 c -0.45 0.15 -1.05 0.75 -1.20 1.20 l -0.30 0.90 1.20 0 1.20 0 0 -1.20 z "/>
  <path d="M 1219.74 1371.57 l -51.58 -0.22 0 -20.62 0 -20.62 24.97 -0.15 24.89 -0.22 0 -1.50 0 -1.50 -24.89 -0.22 -24.97 -0.15 0 -20.62 0 -20.62 51.36 0 51.36 0 0.07 -38.39 0.07 -38.46 0.52 -1.87 0.52 -1.87 20.39 -0.22 20.39 -0.15 0 16.42 0 16.42 1.05 0.37 1.05 0.45 0.45 -0.45 0.45 -0.45 0 -16.42 0 -16.35 20.84 0.15 20.77 0.22 0.22 73.85 0.22 73.85 -0.45 9.97 -0.52 9.90 -42.89 -0.15 c -23.54 -0.15 -65.98 -0.30 -94.32 -0.37 z  m 95.97 -75.05 l 0.15 -33.29 -1.27 0.30 -1.35 0.22 -0.22 31.72 -0.15 31.64 -34.34 0 -34.41 0 -0.45 0.52 -0.52 0.45 0.82 1.05 0.90 0.97 35.31 -0.15 35.31 -0.22 0.22 -33.22 z "/>
  <path d="M 1372.10 1309.72 l 0 -62.31 51.88 0.45 c 28.49 0.30 79.25 0.52 112.84 0.52 l 60.96 0 0 49.34 0 49.41 -0.52 12.45 -0.45 12.52 -112.39 0 -112.32 0 0 -62.38 z  m 211.21 52.41 l 2.32 -1.27 1.80 -2.77 1.72 -2.85 0.22 -44.24 0.22 -44.24 -1.80 -3.37 -1.72 -3.37 -3 -1.65 -2.92 -1.57 -96.42 -0.30 -96.35 -0.22 -3.07 2.02 -3 1.95 -1.20 2.62 -1.27 2.62 0 44.39 0 44.39 1.27 2.62 1.20 2.62 3 1.95 3.07 2.02 94.47 0.37 94.55 0.37 2.25 -0.45 c 1.27 -0.22 3.30 -0.97 4.65 -1.65 z "/>
  <path d="M 1389.57 1360.93 l -3.15 -0.52 -1.65 -1.50 c -0.82 -0.75 -2.02 -2.32 -2.62 -3.45 l -1.05 -2.02 0 -42.81 0 -42.81 1.05 -2.40 0.97 -2.40 2.10 -1.87 2.02 -1.87 96.05 0 96.12 0 2.40 1.42 2.40 1.50 1.20 2.25 1.20 2.32 -0.22 44.39 -0.22 44.31 -1.87 2.02 -1.87 2.10 -2.40 0.97 -2.40 1.05 -92.45 -0.07 -92.45 -0.15 -3.15 -0.45 z  M1584.88 1310.24 C 1584.88 1305.74 1581.21 1302.07 1576.71 1302.07 1572.14 1302.07 1568.46 1305.74 1568.46 1310.24 1568.46 1314.74 1572.14 1318.41 1576.71 1318.41 1581.21 1318.41 1584.88 1314.74 1584.88 1310.24 Z M1581.96 1316.16 "/>
  <path d="M1582.19 1310.32 C 1582.19 1313.31 1579.79 1315.79 1576.71 1315.79 1573.71 1315.79 1571.31 1313.31 1571.31 1310.32 1571.31 1307.32 1573.71 1304.84 1576.71 1304.84 1579.79 1304.84 1582.19 1307.32 1582.19 1310.32 Z M1573.49 1314.29 "/>
  <path d="M 1000.96 1327.86 l 0 -43.49 27.74 0 27.74 0 0 43.49 0 43.49 -27.74 0 -27.74 0 0 -43.49 z "/>
  <path d="M 1059.81 1327.93 l 0.52 -43.41 -0.52 -1.57 -0.45 -1.57 -29.17 0 -29.17 0 -0.22 -11.02 -0.22 -11.10 -6.75 0 -6.75 0 -0.22 5.47 -0.22 5.40 -4.05 0 -4.12 0 0 -72.73 0 -72.80 -1.05 -0.37 -1.05 -0.45 -10.05 0.90 -9.97 0.82 -9 1.80 -9 1.80 -7.12 2.40 c -15.97 5.32 -29.84 12.60 -43.41 22.79 l -7.27 5.47 -6.75 6.60 c -7.72 7.57 -14.32 15.60 -20.77 25.42 l -4.42 6.75 -4.42 9 -4.35 9 -2.70 8.10 -2.70 8.10 -1.80 8.77 -1.80 8.77 -0.82 8.25 c -0.37 4.57 -0.75 9.07 -0.75 10.05 l 0 1.72 -98 -0.15 c -53.98 -0.15 -98.52 -0.15 -98.97 -0.07 l -0.97 0.07 0 2.62 0 2.62 -57.28 0 -57.36 0 -0.22 -2.77 -0.22 -2.85 -3.30 -0.22 -3.30 -0.22 0.30 -173.35 0.30 -173.35 -5.40 -0.22 -5.40 -0.22 -0.22 -2.02 -0.22 -2.02 -63.58 -0.22 -63.66 -0.15 0.52 -4.72 c 1.42 -13.65 3.97 -24.14 8.70 -36.14 l 2.92 -7.50 3.67 -6.60 c 2.10 -3.67 5.70 -9.37 8.10 -12.67 l 4.35 -6.07 7.05 -7.42 7.05 -7.42 7.80 -5.92 7.87 -5.85 7.05 -3.90 7.05 -3.90 7.42 -2.92 c 4.05 -1.57 10.57 -3.75 14.40 -4.80 l 7.05 -1.87 8.47 -1.12 8.47 -1.12 10.50 0 10.42 0 0 -5.62 0 -5.62 37.34 0 37.41 0 0.45 -44.39 c 0.30 -24.44 0.52 -103.69 0.52 -176.05 0 -72.35 0.22 -181.45 0.52 -242.48 l 0.45 -110.89 100.92 0.30 100.92 0.30 0.22 -2.77 0.22 -2.85 57.51 0 c 31.64 0 76.48 0.22 99.72 0.52 l 42.14 0.45 0 2.40 0 2.40 36.51 0.52 c 20.09 0.30 36.59 0.60 36.66 0.67 0.15 0.15 -2.47 16.12 -3.82 23.62 l -0.45 2.40 1.57 0 1.50 0 0 77.53 0 77.60 0.82 0.45 c 0.45 0.30 0.90 0.37 1.12 0.15 0.15 -0.15 0.52 -35.31 0.82 -78.05 l 0.45 -77.68 1.42 0 1.35 0 0 -0.75 c 0 -0.37 -0.82 -5.85 -1.87 -12.15 -1.05 -6.30 -1.87 -11.85 -1.87 -12.37 l 0 -0.97 32.32 0 32.39 0 -0.30 217.29 -0.30 217.21 11.92 0.22 11.92 0.22 0.67 -0.97 0.60 -0.97 0 -4.65 0 -4.65 2.10 -0.22 2.02 -0.22 0.22 -66.51 0.15 -66.43 3.22 0.30 c 15.15 1.65 25.34 3.90 37.11 8.25 l 7.27 2.70 7.12 3.75 c 22.42 11.85 40.11 28.72 52.93 50.54 l 4.12 7.05 3.37 8.02 c 3.67 8.77 6.30 17.47 8.25 27.22 l 1.27 6.37 0.45 15 0.45 15 5.47 0.22 5.40 0.22 0 67.78 0 67.86 -4.12 0 -4.12 0 0 -66.51 0 -66.43 -9.22 0.45 -9.15 0.45 -9.45 1.87 -9.37 1.87 -7.87 2.70 -7.80 2.70 -8.25 4.05 -8.25 4.05 -6.37 4.27 c -8.70 5.77 -17.39 13.20 -24.67 21.07 l -6.15 6.60 -4.87 6.75 -4.80 6.75 -5.25 10.50 -5.25 10.50 -2.55 7.87 -2.62 7.87 -1.57 7.87 -1.65 7.87 -0.37 8.47 -0.45 8.40 -4.35 0 -4.42 0 0 -5.62 0 -5.62 -6.75 0 -6.75 0 0 5.47 c 0 2.92 -0.15 11.17 -0.30 18.14 -0.15 7.05 -0.30 37.79 -0.37 68.38 l -0.07 55.71 -91.62 0.15 -91.70 0.22 0 68.60 0 68.60 5.47 0.22 5.40 0.22 0 4.42 0 4.50 12.37 0 12.37 0 0 -1.12 0 -1.12 -3.52 0 c -2.02 0 -6.90 -0.22 -10.87 -0.52 l -7.35 -0.45 0 -2.92 0 -2.85 44.61 0 44.61 0 0 3.37 0 3.37 -11.25 0 -11.25 0 0 1.12 0 1.12 12.30 0 12.30 0 0.45 -2.32 c 0.22 -1.27 0.45 -3.30 0.45 -4.50 l 0 -2.17 85.70 0 85.62 0 24.29 0.52 24.29 0.45 -0.45 75.43 c -0.30 41.46 -0.52 91.40 -0.52 110.89 l 0 35.39 -49.86 0 -49.86 0 0 -2.17 0 -2.17 -0.75 -0.30 c -0.37 -0.07 -24.29 -0.07 -53.01 0.15 l -52.33 0.37 -0.22 46.71 -0.15 46.64 -1.20 0 -1.27 0 0.60 -43.41 z  m 55.11 -680.50 l 0 -0.75 -41.24 -0.22 -41.24 -0.15 0 1.12 0 1.12 41.24 -0.15 41.24 -0.22 0 -0.75 z  m -48.81 -26.77 l 0.07 -1.35 -1.50 0 -1.50 0 0 -77.60 0 -77.60 -1.12 0 -1.12 0 0 59.08 c 0 32.47 -0.22 67.33 -0.52 77.60 l -0.45 18.52 -1.42 0 c -0.75 0 -1.35 0.22 -1.35 0.45 0 1.20 3.90 24.07 4.27 25.04 l 0.45 1.12 2.10 -12 c 1.12 -6.60 2.10 -12.60 2.10 -13.27 z "/>
  <path d="M 629.29 1359.58 l -119.44 -0.22 0 -15.75 0 -15.75 32.62 0 32.62 0 0 -1.12 0 -1.12 -18.52 0 c -10.27 0 -24.89 -0.22 -32.62 -0.52 l -14.10 -0.45 0 -0.67 0 -0.60 36.96 0 c 20.39 0 74.53 0.22 120.34 0.52 l 83.38 0.45 0 0.67 0 0.60 -32.69 0 -32.62 0 0.22 1.35 0.22 1.27 32.47 0.22 32.39 0.15 0 15.75 0 15.75 -0.90 -0.15 c -0.52 -0.15 -54.73 -0.30 -120.34 -0.37 z  m 29.99 -32.84 l 0.15 -0.75 -28.49 -0.22 c -15.67 -0.07 -28.94 0 -29.47 0.22 l -0.97 0.37 0.45 0.75 0.45 0.75 28.87 -0.15 28.79 -0.22 0.22 -0.75 z "/>
  <path d="M 223.43 1348.85 l 0 -9.75 55.33 0 c 30.37 0 64.63 0.22 76.10 0.52 l 20.77 0.45 0 9.30 0 9.22 -76.10 0 -76.10 0 0 -9.75 z "/>
  <path d="M 378.64 1326.74 l 0 -31.87 58.48 0 58.48 0 0 31.87 0 31.87 -58.48 0 -58.48 0 0 -31.87 z  m 68.53 21.74 l 5.17 -1.12 4.72 -2.17 4.72 -2.17 3.45 -3.22 3.52 -3.22 1.57 -3.07 1.50 -3 0.07 -4.50 0 -4.50 -1.27 -2.70 c -0.75 -1.50 -2.55 -4.12 -3.90 -5.70 l -2.55 -3 -5.17 -2.70 -5.17 -2.77 -4.80 -1.20 -4.80 -1.27 -7.12 0 -7.12 0 -4.87 1.27 c -2.70 0.67 -6.60 2.02 -8.62 3.07 l -3.82 1.80 -3.15 2.77 -3.15 2.70 -2.10 3.45 -2.02 3.52 0 4.87 0.07 4.87 1.57 3 1.57 3.07 3.52 3.22 3.45 3.22 4.80 2.17 4.72 2.25 4.72 1.05 4.80 0.97 5.25 0.07 5.25 0.07 5.17 -1.12 z "/>
  <path d="M 425.13 1345.40 c -2.25 -0.60 -5.55 -1.80 -7.27 -2.62 l -3.22 -1.57 -3.67 -3.30 -3.75 -3.37 -1.27 -3.30 -1.27 -3.37 0.37 -3.82 0.37 -3.75 2.25 -3.15 2.17 -3.15 3.82 -2.70 3.90 -2.70 5.10 -1.65 5.02 -1.65 6.07 -0.45 6.07 -0.45 6.22 1.27 6.30 1.27 3.82 1.95 c 2.10 1.05 5.10 2.92 6.60 4.12 l 2.70 2.10 1.95 3.90 1.95 3.90 0 3 0 3 -1.57 3.15 -1.50 3.22 -2.92 2.62 -2.92 2.62 -3.75 1.95 c -2.10 1.05 -5.70 2.40 -8.10 3 l -4.27 1.12 -7.57 -0.07 -7.50 0 -4.12 -1.12 z  m 34.94 -7.12 l 3.37 -2.25 1.80 -2.77 1.80 -2.77 0.52 -2.85 0.45 -2.85 -1.20 -3.30 -1.27 -3.22 -3.37 -3.15 -3.37 -3.15 -4.12 -1.87 -4.12 -1.87 -6.15 -1.05 -6.15 -1.12 -4.50 0.45 c -5.70 0.60 -11.77 2.25 -16.12 4.50 l -3.37 1.72 -2.55 2.55 -2.55 2.47 -1.50 3.30 -1.42 3.30 0.45 3 0.52 3.07 1.57 2.55 1.57 2.55 3.45 2.55 3.45 2.55 19.72 0 19.72 0 3.37 -2.32 z "/>
  <path d="M 415.60 1336.18 l -3 -2.17 -1.65 -2.62 -1.57 -2.55 0 -2.77 0 -2.77 1.05 -2.02 c 2.55 -4.80 8.85 -9 16.72 -11.02 l 4.27 -1.12 5.32 0 5.25 0 4.72 1.12 c 8.10 1.95 14.47 6.07 17.09 11.02 l 1.05 2.02 0 2.92 0 2.92 -2.17 3 -2.17 3 -2.62 1.65 -2.55 1.57 -8.02 0 -7.95 0 0 -0.45 c 0 -0.22 0.37 -1.05 0.75 -1.87 l 0.82 -1.42 -0.82 -1.50 -0.82 -1.50 -2.25 0 -2.17 0 -0.90 1.87 -0.82 1.95 0.82 0.82 c 0.52 0.52 0.90 1.20 0.90 1.50 l 0 0.60 -8.10 0 -8.17 0 -3 -2.17 z "/>
  <path d="M 222.68 1234.74 l 0 -101.45 0.45 -15.15 0.52 -15.22 63.28 0 63.21 0 0 5.10 0 5.02 1.12 7.87 1.12 7.87 2.25 8.47 c 5.32 19.87 14.92 37.79 28.87 54.21 l 5.25 6.15 6.75 5.92 6.75 5.92 7.80 5.25 7.80 5.25 6.82 3.45 c 17.69 8.92 37.11 13.95 55.93 14.62 l 6.37 0.22 0.37 -67.48 0.37 -67.48 3.67 -0.22 3.67 -0.22 0.67 0.67 0.75 0.75 -0.52 93.87 -0.60 93.95 -58.93 -0.37 c -32.39 -0.22 -59.38 -0.22 -59.83 -0.07 l -0.97 0.37 0 22.04 0 22.04 -22.72 0 -22.64 0 -1.72 -4.27 c -0.90 -2.40 -2.85 -8.55 -4.27 -13.80 l -2.55 -9.37 0.82 -3.37 0.75 -3.30 -0.37 -6.15 -0.37 -6.15 -2.25 -4.87 -2.25 -4.87 -3.07 -3.30 -3.07 -3.30 -4.65 -2.55 -4.72 -2.55 -7.50 0 -7.50 0 -4.72 2.55 -4.65 2.55 -3.07 3.30 -3.07 3.30 -2.32 5.02 -2.32 5.02 -0.30 6.37 -0.30 6.37 0.75 2.85 0.82 2.85 -3.30 11.02 c -1.80 6.07 -3.67 12.30 -4.27 13.87 l -0.97 2.77 -18.52 0 -18.59 0 0 -101.37 z "/>
  <path d="M 263.17 1335.73 c 0 -0.30 0.52 -1.42 1.05 -2.55 l 1.12 -2.10 2.10 -1.42 2.10 -1.42 22.49 -0.22 22.49 -0.22 3.22 0.45 3.22 0.45 2.47 2.25 2.55 2.17 0.37 1.50 0.37 1.50 -31.79 0 -31.79 0 0 -0.37 z "/>
  <path d="M 95.97 1216.52 l 0 -113.59 62.23 0 62.23 0 0 96.57 0 96.65 -0.52 16.95 -0.45 17.02 -61.78 0 -61.71 0 0 -113.59 z  m 110.52 102.79 l 2.85 -2.17 1.12 -2.62 1.12 -2.62 0.37 -93.80 0.45 -93.80 -0.90 -3.07 -0.82 -3.07 -1.65 -2.10 -1.57 -2.10 -3.07 -1.35 -3.07 -1.42 -43.86 0 -43.86 0 -2.92 1.72 -2.92 1.65 -1.80 3.30 -1.72 3.37 0.15 96.35 0.22 96.42 1.80 2.55 1.80 2.47 3.07 1.42 3.07 1.42 44.69 -0.22 44.69 -0.15 2.77 -2.17 z "/>
  <path d="M 111.49 1317.44 c -1.12 -0.75 -2.70 -2.17 -3.37 -3.15 l -1.27 -1.80 0.30 -95.97 0.22 -95.97 1.20 -2.10 1.20 -2.02 3.07 -1.50 3 -1.50 43.11 0.15 43.11 0.22 2.32 1.27 2.25 1.20 1.35 2.55 1.27 2.47 -0.22 95.60 -0.22 95.60 -1.42 2.10 -1.42 2.10 -2.10 1.12 -2.10 1.05 -44.09 0 -44.09 0 -2.10 -1.42 z  M165.93 1309.12 C 165.93 1304.69 162.33 1301.02 157.83 1301.02 153.33 1301.02 149.73 1304.69 149.73 1309.12 149.73 1313.61 153.33 1317.21 157.83 1317.21 162.33 1317.21 165.93 1313.61 165.93 1309.12 Z M163.68 1314.36 "/>
  <path d="M163.30 1309.27 C 163.30 1312.26 160.83 1314.66 157.83 1314.66 154.83 1314.66 152.43 1312.26 152.43 1309.27 152.43 1306.27 154.83 1303.79 157.83 1303.79 160.83 1303.79 163.30 1306.27 163.30 1309.27 Z M153.70 1312.34 "/>
  <path d="M 266.92 1325.24 c 0 0 1.65 -6.07 3.75 -13.50 l 3.75 -13.50 0 -2.40 0 -2.32 1.35 -4.50 1.42 -4.42 2.40 -3.52 2.47 -3.52 2.92 -2.17 2.92 -2.10 3.75 -0.90 3.67 -0.90 4.27 1.27 4.20 1.20 3.52 3.52 3.52 3.52 1.72 3.75 1.80 3.75 0.67 4.87 c 0.82 5.10 2.17 10.80 5.70 23.99 l 2.17 7.87 -27.97 0 c -15.45 0 -28.04 0 -28.04 0 z "/>
  <path d="M 519.82 1320.59 l -9.97 -0.30 0 -18.29 0 -18.37 62.08 -0.15 62.01 -0.22 0.22 -2.40 0.22 -2.47 54.66 0 54.66 0 0.22 2.47 0.22 2.40 3.22 0.22 3.15 0.22 0 18.74 0 18.67 -110.37 -0.15 c -60.73 -0.07 -114.94 -0.30 -120.34 -0.37 z "/>
  <path d="M 319.18 1295.99 c -0.30 -2.40 -0.75 -5.32 -0.90 -6.37 l -0.37 -1.87 1.12 3.37 1.20 3.37 -0.22 3 -0.22 3 -0.60 -4.50 z "/>
  <path d="M 270 1296.67 c 0.07 -1.57 0.37 -3.75 0.75 -4.80 l 0.60 -1.87 -0.45 4.50 c -0.45 5.25 -0.97 6.45 -0.90 2.17 z "/>
  <path d="M 1064.46 1281.60 c -0.30 -0.22 -0.52 -0.75 -0.52 -1.12 l 0 -0.60 50.46 0.15 50.39 0.22 0 0.75 0 0.75 -49.94 0.22 -49.94 0.15 -0.45 -0.52 z "/>
  <path d="M 974.41 1199.12 c 0.30 -39.14 0.60 -71.23 0.75 -71.38 0.15 -0.15 0.30 31.79 0.30 71 l 0 71.38 -0.75 0 -0.75 0 0.45 -71 z "/>
  <path d="M 1430.05 1244.86 l -57.96 -0.22 0 -70.33 c 0 -38.61 0.22 -102.87 0.52 -142.76 l 0.45 -72.58 22.79 0 22.72 0 0 0.60 c 0 0.30 0.37 4.42 0.75 9.15 l 0.82 8.62 1.87 8.55 c 2.47 11.02 5.47 19.49 10.42 29.32 l 3.97 7.95 4.50 6.67 4.57 6.75 5.85 6.75 5.92 6.75 6.37 5.32 c 3.45 3 9.15 7.27 12.67 9.67 l 6.37 4.27 9 4.35 9 4.35 7.20 2.32 c 3.97 1.20 10.72 3 15 3.90 l 7.80 1.57 9 0.15 9 0.07 0.22 -63.51 0.15 -63.58 24.74 0 24.74 0 0 59.83 0 59.91 8.47 0.45 c 4.57 0.30 14.25 0.52 21.37 0.52 l 12.90 0 0 21.97 0 21.89 -2.77 0.97 c -1.57 0.60 -7.57 2.32 -13.35 3.97 l -10.50 3 -5.77 -0.90 -5.77 -0.82 -5.02 0.82 -5.02 0.90 -4.42 2.25 -4.50 2.25 -3.22 3.30 -3.30 3.22 -1.87 3.75 -1.87 3.75 -0.67 4.20 -0.67 4.12 0.60 4.12 0.52 4.12 2.47 4.57 2.47 4.57 3.30 3 3.37 2.92 3.82 1.80 3.82 1.80 4.80 0.97 4.72 0.90 5.77 -0.90 5.70 -0.82 9.75 2.62 c 5.40 1.50 11.55 3.45 13.72 4.27 l 3.90 1.65 0 20.09 0 20.09 -21.52 0.15 -21.59 0.22 -0.22 5.47 -0.22 5.40 -54.88 -0.15 c -30.22 -0.15 -80.98 -0.30 -112.77 -0.37 z "/>
  <path d="M 463.36 1233.39 c -10.42 -1.87 -19.57 -4.57 -29.47 -8.77 l -8.10 -3.37 -7.72 -4.65 -7.72 -4.65 -6.30 -4.95 -6.30 -4.95 -7.20 -7.35 c -8.62 -8.92 -13.05 -14.70 -19.12 -24.82 l -4.65 -7.65 -3.37 -8.10 c -4.27 -10.12 -6.90 -19.19 -8.77 -29.92 l -1.42 -8.40 -0.52 -12.97 c -0.22 -7.20 -0.60 -13.27 -0.82 -13.57 l -0.30 -0.60 -5.02 0 -5.02 0 0 -38.39 0 -38.46 -5.40 -0.22 -5.40 -0.22 -0.22 -2.02 -0.22 -2.02 -4.87 -0.45 -4.87 -0.52 -58.78 -0.07 -58.78 -0.07 0.52 -5.40 c 0.30 -3 1.20 -8.85 2.02 -12.90 l 1.42 -7.50 2.32 -7.12 2.32 -7.20 4.80 -9.75 4.80 -9.75 4.87 -6.75 c 12.52 -17.47 27.97 -30.67 46.64 -40.04 l 7.35 -3.67 7.57 -2.62 c 9.37 -3.22 19.27 -5.47 29.47 -6.45 l 7.72 -0.82 8.55 0 8.55 0 0 -56.83 0 -56.91 -81.50 -0.45 c -44.91 -0.30 -100.10 -0.52 -122.66 -0.52 l -41.16 0 0.45 -268.95 c 0.30 -148.01 0.67 -289.04 0.90 -313.41 l 0.45 -44.46 63.51 0 c 34.86 0 141.63 0.22 237.23 0.52 l 173.72 0.45 0 82.63 c 0 45.44 -0.22 186.40 -0.52 313.26 l -0.45 230.71 -37.19 0.15 -37.19 0.22 -0.22 10.95 -0.22 10.95 -6.90 0.60 c -3.75 0.22 -10.65 1.12 -15.15 1.87 l -8.25 1.42 -8.17 2.70 -8.17 2.62 -7.05 3.37 c -9.15 4.27 -14.77 7.72 -23.09 13.95 l -6.75 5.02 -8.32 8.55 -8.25 8.55 -5.47 8.10 c -13.95 20.92 -21.44 43.49 -22.04 66.43 l -0.15 7.12 63.58 0.22 63.51 0.15 0 82.10 0 82.10 -5.62 0 -5.62 0 0 5.62 0 5.62 -2.25 0 -2.25 0 0 27.59 c 0 15.22 -0.22 45.44 -0.52 67.11 l -0.45 39.51 -4.20 -0.07 -4.20 -0.07 -7.87 -1.35 z "/>
  <path d="M 1645.62 1233.61 l -1.35 -0.30 0 -76.85 0 -76.78 9.75 0 9.75 0 0 35.09 c 0 19.27 -0.22 53.98 -0.52 77.23 l -0.45 42.14 -7.95 -0.07 c -4.35 -0.07 -8.55 -0.22 -9.22 -0.45 z "/>
  <path d="M 1271.40 1201.37 l -0.52 -0.45 0 -43.41 0 -43.34 21.37 0 21.37 0 0 19.49 0 19.49 1.12 0 1.12 0 0 -19.49 0 -19.49 20.92 0 20.99 0 0.37 0.67 0.45 0.67 -0.52 43.19 -0.45 43.19 -20.84 0 -20.84 0 -0.22 -11.40 -0.22 -11.32 -0.90 -0.30 -0.90 -0.30 -0.22 11.47 -0.22 11.47 -20.69 0.22 -20.62 0.15 -0.52 -0.52 z  M1303.57 1180.30 C 1303.57 1173.48 1298.02 1167.86 1291.12 1167.86 1284.30 1167.86 1278.75 1173.48 1278.75 1180.30 1278.75 1187.20 1284.30 1192.75 1291.12 1192.75 1298.02 1192.75 1303.57 1187.20 1303.57 1180.30 Z M1295.39 1192.07  M1348.48 1180.53 C 1348.48 1173.63 1342.93 1168.16 1336.11 1168.16 1329.21 1168.16 1323.74 1173.63 1323.74 1180.53 1323.74 1187.35 1329.21 1192.90 1336.11 1192.90 1342.93 1192.90 1348.48 1187.35 1348.48 1180.53 Z M1342.71 1190.88  m -47.31 -43.79 l 2.10 -0.75 2.32 -2.32 2.40 -2.25 0.90 -3.15 0.90 -3.22 -0.82 -3 -0.82 -3 -1.50 -1.87 -1.42 -1.87 -2.62 -1.27 -2.55 -1.20 -3.15 0 -3.15 0 -2.85 1.57 -2.85 1.57 -1.57 2.85 -1.57 2.85 0 3.67 0 3.75 1.72 2.55 1.65 2.55 3.37 1.72 3.30 1.65 2.02 0 c 1.12 0 3 -0.37 4.20 -0.82 z  M1348.78 1135.47 C 1348.78 1128.57 1343.16 1123.02 1336.33 1123.02 1329.43 1123.02 1323.89 1128.57 1323.89 1135.47 1323.89 1142.36 1329.43 1147.91 1336.33 1147.91 1343.16 1147.91 1348.78 1142.36 1348.78 1135.47 Z M1341.66 1146.41 "/>
  <path d="M1301.24 1180.38 C 1301.24 1186 1296.74 1190.58 1291.12 1190.58 1285.50 1190.58 1281 1186 1281 1180.38 1281 1174.83 1285.50 1170.26 1291.12 1170.26 1296.74 1170.26 1301.24 1174.83 1301.24 1180.38 Z M1286.70 1189.38 "/>
  <path d="M1346.30 1180.45 C 1346.30 1186.08 1341.73 1190.65 1336.18 1190.65 1330.56 1190.65 1325.99 1186.08 1325.99 1180.45 1325.99 1174.90 1330.56 1170.33 1336.18 1170.33 1341.73 1170.33 1346.30 1174.90 1346.30 1180.45 Z M1331.83 1189.60 "/>
  <path d="M1301.39 1135.39 C 1301.39 1141.01 1296.89 1145.51 1291.27 1145.51 1285.65 1145.51 1281.15 1141.01 1281.15 1135.39 1281.15 1129.84 1285.65 1125.27 1291.27 1125.27 1296.89 1125.27 1301.39 1129.84 1301.39 1135.39 Z M1286.85 1144.46 "/>
  <path d="M1346.38 1135.47 C 1346.38 1141.09 1341.88 1145.66 1336.26 1145.66 1330.63 1145.66 1326.06 1141.09 1326.06 1135.47 1326.06 1129.92 1330.63 1125.34 1336.26 1125.34 1341.88 1125.34 1346.38 1129.92 1346.38 1135.47 Z M1331.68 1144.39 "/>
  <path d="M 1636.47 1188.03 l -1.95 -1.80 -0.75 -1.95 -0.75 -1.95 0 -23.62 0 -23.62 1.05 -2.47 1.05 -2.47 2.02 -1.57 c 1.12 -0.90 2.55 -1.65 3.07 -1.65 l 1.05 0 0 17.47 c 0 9.52 -0.22 23.69 -0.52 31.49 l -0.45 14.02 -0.90 0 c -0.52 0 -1.80 -0.82 -2.92 -1.87 z "/>
  <path d="M 1618.77 1183.38 l -11.62 -3.30 -6.52 -0.97 -6.45 -1.05 -4.12 -1.87 -4.12 -1.87 -2.92 -2.92 -2.92 -2.92 -1.35 -2.77 c -0.67 -1.57 -1.50 -4.05 -1.72 -5.40 l -0.45 -2.62 0.90 -3.15 0.90 -3.22 2.47 -3.37 2.47 -3.37 4.20 -2.47 4.12 -2.47 6.30 -1.12 c 3.37 -0.60 12 -2.62 19.04 -4.50 7.05 -1.80 12.97 -3.30 13.12 -3.30 0.15 0 0.15 11.55 -0.07 25.64 l -0.37 25.72 0.52 2.17 c 0.30 1.20 0.52 2.25 0.37 2.32 -0.07 0.07 -5.40 -1.35 -11.77 -3.15 z "/>
  <path d="M 1597.86 1183.08 c -1.80 -0.37 -3.45 -0.82 -3.60 -0.97 -0.60 -0.52 8.17 0.45 9.90 1.12 l 1.50 0.60 -2.25 -0.07 c -1.20 0 -3.75 -0.30 -5.55 -0.67 z "/>
  <path d="M 1595.53 1134.49 c 1.05 -0.37 3.60 -0.82 5.62 -1.12 l 3.75 -0.60 -0.75 0.75 -0.75 0.67 -4.87 0.45 -4.87 0.37 1.87 -0.52 z "/>
  <path d="M 1272.15 1111.40 l -0.52 -0.45 0 -26.84 0 -26.77 -1.20 -0.45 -1.20 -0.45 -110.14 0 -110.14 0 0 -6.37 0 -6.45 -1.20 -0.45 -1.20 -0.45 -0.67 1.05 -0.67 1.05 0 5.85 0 5.77 -44.24 0 -44.24 0 0 -6.37 0 -6.45 -1.20 -0.45 -1.20 -0.45 -0.67 1.05 -0.67 1.05 0 5.85 0 5.77 -3.75 0 -3.75 0 0 -25.79 0 -25.79 22.04 -0.30 22.12 -0.30 0.52 -0.45 0.45 -0.52 -0.37 -1.20 -0.45 -1.12 -16.57 0 -16.50 0 0 -10.87 0 -10.80 11.10 -0.22 11.02 -0.22 0.22 -1.65 0.22 -1.72 -12.75 0 -12.82 0 0 12.75 0 12.75 -4.12 0 -4.12 0 0 -38.24 0 -38.24 71.08 0 71.15 0 19.19 0.52 19.27 0.45 0.15 16.57 0.22 16.57 116.07 0.22 115.99 0.15 -0.45 75.58 c -0.22 41.54 -0.52 75.95 -0.75 76.48 l -0.22 0.90 -20.47 -0.15 -20.47 -0.22 -0.22 -8.40 -0.22 -8.47 -1.05 0 -1.05 0 -0.22 8.47 -0.22 8.40 -20.32 0.22 -20.24 0.15 -0.52 -0.52 z  m 44.09 -76.55 l 0 -32.77 -23.62 0 -23.62 0 0 1.12 0 1.12 22.34 0.22 22.27 0.15 0 31.72 0 31.79 0.52 0.52 0.52 0.45 0.75 -0.75 0.82 -0.82 0 -32.77 z  m -90.12 5.47 l 2.92 -1.35 1.95 -3 2.02 -3 0.22 -14.10 0.30 -14.10 4.57 -0.22 4.65 -0.22 0 -1.12 0 -1.12 -4.65 -0.22 -4.72 -0.22 0 -9.15 0 -9.15 -0.75 -2.62 -0.75 -2.70 -2.40 -2.32 -2.47 -2.40 -2.10 -0.75 -2.10 -0.82 -38.54 0 -38.61 -0.07 -1.72 0.90 c -2.55 1.27 -5.02 3.82 -6.37 6.30 l -1.12 2.25 0.15 10.35 0.15 10.27 -17.99 0 -17.99 0 -0.52 0.82 -0.52 0.82 1.05 0.67 1.05 0.67 17.09 0 17.02 0 0 12.07 0 12 0.82 3.15 0.75 3.15 1.27 1.57 c 0.75 0.82 2.32 2.17 3.52 3 l 2.17 1.42 33.44 0.45 c 18.37 0.22 36.06 0.37 39.36 0.30 l 6 -0.07 2.85 -1.42 z  m -152.88 -36.06 l 1.20 -0.45 0 -1.05 0 -1.05 -29.24 0 -29.24 0 0 1.12 0 1.12 25.72 0.22 c 14.10 0.07 26.69 0.22 28.04 0.37 1.27 0.07 2.85 -0.07 3.52 -0.30 z  m -24.67 -15.67 l 0 -12 -12.52 -0.22 -12.60 -0.15 0 1.12 0 1.12 11.25 0 11.25 0 0 11.32 0 11.25 1.35 -0.22 1.27 -0.22 0 -12 z "/>
  <path d="M 1145.29 1038.07 l -2.25 -0.97 19.57 -0.07 19.49 -0.07 0.90 -0.90 0.90 -0.90 0 -16.12 0 -16.12 0.90 0.90 0.90 0.90 2.55 0 2.47 0 -0.07 14.85 c -0.07 8.10 -0.07 15.15 -0.07 15.60 l 0.07 0.90 1.27 0.45 1.20 0.52 15.67 0 15.67 0.07 1.12 -0.90 1.05 -0.90 0 -15.30 0 -15.30 1.95 0 1.87 0 -0.22 14.17 -0.22 14.17 -1.87 2.02 c -1.05 1.12 -2.77 2.47 -3.90 3.07 l -2.02 1.05 -37.34 0 -37.34 -0.07 -2.25 -1.05 z "/>
  <path d="M 1143.71 1033.72 c -0.15 -0.52 -0.22 -7.35 -0.15 -15.15 l 0.22 -14.25 7.12 0 7.12 0 0.22 -1.27 0.22 -1.35 -7.57 0 -7.57 0 0.22 -11.40 0.22 -11.47 15.52 0 15.52 0 2.10 1.57 2.10 1.50 1.27 2.55 1.27 2.47 0.07 21.97 0 22.04 -0.45 1.87 -0.45 1.87 -18.29 0 -18.37 0 -0.37 -0.97 z "/>
  <path d="M 1192.90 1019.70 l 0 -15 15.75 0 15.75 0 0 13.35 0 13.27 -0.45 1.72 -0.45 1.65 -15.30 0 -15.30 0 0 -15 z "/>
  <path d="M 1139.37 1032 l -0.45 -1.20 0 -13.05 0 -13.05 0.75 0 0.75 0 0 14.25 c 0 7.87 -0.15 14.25 -0.30 14.25 -0.15 0 -0.52 -0.52 -0.75 -1.20 z "/>
  <path d="M 1183.75 993.23 l -0.22 -9.30 -2.02 -2.62 -2.02 -2.62 -2.55 -1.27 -2.62 -1.20 -14.70 0 -14.70 0 0 -0.67 c 0 -0.37 0.52 -0.90 1.20 -1.12 l 1.27 -0.52 37.04 0.07 36.96 0.07 2.25 0.75 2.17 0.82 2.32 2.55 2.25 2.62 0 10.42 0 10.50 -1.87 0 -1.87 0 0 -8.62 0 -8.55 -1.42 -0.82 -1.50 -0.75 -11.62 0 -11.62 0 -2.10 0.82 c -2.62 0.97 -5.32 3.45 -6.75 6.22 l -1.12 2.17 0.07 4.80 0.07 4.72 -2.17 0 c -1.20 0 -2.70 0.22 -3.30 0.45 l -1.12 0.45 -0.30 -9.37 z "/>
  <path d="M 1138.99 992.18 l 0 -9.60 0.60 -1.42 0.60 -1.50 0.30 0.75 c 0.15 0.37 0.22 5.32 0.07 11.02 l -0.30 10.27 -0.67 0 -0.67 0 0.07 -9.52 z "/>
  <path d="M 1193.05 996.46 l 0.30 -5.17 1.80 -2.02 1.87 -2.02 2.40 -0.97 2.40 -1.05 10.42 0 10.35 0 0.90 0.90 0.90 0.90 0 7.35 0 7.35 -15.82 0 -15.82 0 0.30 -5.25 z  M1215.47 993.16 C 1215.47 989.93 1212.84 987.38 1209.62 987.38 1206.40 987.38 1203.85 989.93 1203.85 993.16 1203.85 996.38 1206.40 999.01 1209.62 999.01 1212.84 999.01 1215.47 996.38 1215.47 993.16 Z M1213.82 996.76 "/>
  <path d="M 1207.60 995.26 c -1.42 -1.42 -1.50 -2.70 -0.30 -3.90 l 0.90 -0.90 1.72 0 1.65 0 0.75 1.35 0.75 1.42 -1.12 1.57 -1.12 1.65 -1.05 0 c -0.52 0 -1.57 -0.52 -2.17 -1.20 z "/>
  <path d="M 96.20 1000.81 c 0.30 -48.29 0.52 -116.44 0.52 -151.46 l 0 -63.58 115.69 0.15 115.62 0.22 0.22 17.24 0.22 17.24 -0.45 8.47 -0.52 8.40 -19.87 0 -19.79 0 0.22 1.35 0.22 1.27 19.72 0.22 19.64 0.15 0 0.75 0 0.75 -93.50 0 c -51.51 0 -94.02 0 -94.55 0 l -0.90 0 0.15 102.94 0.22 102.87 94.32 0.22 94.25 0.15 0 0.75 0 0.75 -20.02 0.15 -20.09 0.22 0 1.12 0 1.12 20.09 0.22 20.02 0.15 0 17.99 0 17.99 -115.99 0 -115.92 0 0.45 -87.87 z  m 80.75 50.01 l 0 -1.12 -20.24 0 -20.32 0 0.07 -24.37 0.07 -24.37 -0.45 -0.75 -0.45 -0.75 -0.75 0.37 -0.67 0.45 0 25.72 c 0 14.10 0.15 25.87 0.30 26.02 0.15 0.15 9.82 0.22 21.37 0.07 l 21.07 -0.22 0 -1.05 z  m 84.35 0.37 l 0 -1.12 -29.02 -0.22 -29.09 -0.15 0 0.97 c 0 0.60 0.22 1.27 0.52 1.50 l 0.52 0.52 28.49 -0.15 28.57 -0.22 0 -1.12 z  m -124.46 -106.54 l 0 -28.79 -1.12 0 -1.12 0 -0.22 28.12 c -0.07 15.45 0 28.57 0.22 29.09 l 0.37 1.05 0.97 -0.37 0.90 -0.30 0 -28.79 z  m 0.37 -80.23 l 0 -24.67 20.24 0 20.24 0 0 -1.12 0 -1.05 -21.07 -0.22 -21.07 -0.22 -0.30 0.52 c -0.22 0.30 -0.37 11.92 -0.30 25.79 l 0.07 25.27 0.37 0.67 0.37 0.60 0.75 -0.37 0.67 -0.45 0 -24.74 z  m 124.46 -25.79 l 0 -1.12 -28.79 0 -28.87 0 -0.37 0.67 -0.37 0.60 0.45 0.52 0.45 0.45 28.79 0 28.72 0 0 -1.12 z "/>
  <path d="M 1525.73 1081.93 l -7.95 -1.42 -8.55 -2.77 -8.55 -2.70 -7.57 -3.60 -7.57 -3.67 -7.80 -5.25 -7.80 -5.17 -5.85 -5.25 c -21.82 -19.57 -35.61 -44.39 -40.71 -73.10 l -1.20 -6.90 -0.52 -13.50 -0.45 -13.50 -12.52 -0.22 -12.52 -0.15 0.15 -56.08 0.15 -56.01 -3.15 -0.22 -3.22 -0.22 0 -55.86 0 -55.78 10.12 0 10.12 0 0 -6.60 0 -6.67 -33.14 -0.45 c -18.29 -0.30 -41.39 -0.52 -51.36 -0.52 l -18.22 0 -0.15 -35.39 -0.22 -35.46 -10.95 -0.22 -10.95 -0.22 -0.45 -7.72 -0.52 -7.72 -1.57 -8.17 -1.57 -8.17 -2.62 -8.25 -2.62 -8.25 -3.67 -7.72 -3.60 -7.72 -5.02 -7.65 c -16.42 -25.04 -38.69 -42.89 -66.51 -53.31 l -7.27 -2.70 -7.72 -1.87 c -9.07 -2.17 -17.24 -3.30 -26.02 -3.52 l -6.37 -0.22 -0.22 66.58 -0.15 66.51 -4.12 0 -4.12 0 0 -111.87 c 0 -61.56 0.22 -171.40 0.52 -244.05 l 0.45 -132.19 66.13 0 c 36.36 0 154.23 0.22 261.90 0.52 l 195.69 0.45 -0.30 178.90 c -0.15 98.37 -0.52 224.18 -0.75 279.59 l -0.45 100.62 -51.36 0 -51.28 0 0.22 6.97 0.22 6.90 6.15 0.22 6.22 0.22 0.15 56.76 0.22 56.76 2.10 0.22 2.02 0.22 0 55.03 0 55.11 -16.27 0.15 -16.35 0.22 -0.22 5.40 -0.22 5.40 -2.02 0.22 -2.02 0.22 -0.22 63.21 -0.15 63.13 -3.97 -0.07 c -2.10 0 -7.50 -0.67 -11.85 -1.42 z "/>
  <path d="M 1628 1076.16 l -26.47 -0.22 0 -58.11 0 -58.11 31.12 0 31.12 0 0 58.48 0 58.48 -4.65 -0.15 c -2.62 -0.15 -16.65 -0.30 -31.12 -0.37 z  m 12.30 -25.12 l 3.22 -1.50 3.30 -3.67 3.37 -3.75 1.95 -4.05 1.87 -4.05 1.20 -5.10 1.20 -5.10 -0.37 -8.25 -0.37 -8.25 -1.50 -4.12 c -2.17 -6.15 -4.35 -10.20 -7.35 -13.50 l -2.62 -2.92 -3.90 -1.87 -3.82 -1.95 -3.82 0 -3.82 0 -3.82 1.95 -3.90 1.87 -2.62 2.92 -2.62 2.92 -2.32 4.57 -2.25 4.50 -1.12 4.65 -1.12 4.72 0 6.82 0 6.82 1.42 5.70 1.50 5.62 1.57 3.22 1.65 3.15 3.45 3.67 3.45 3.75 2.10 1.05 c 1.12 0.60 3.30 1.35 4.87 1.72 l 2.85 0.67 2.62 -0.37 c 1.42 -0.22 4.05 -1.05 5.77 -1.87 z "/>
  <path d="M 1627.47 1049.32 l -2.92 -1.05 -3.22 -3.15 -3.22 -3.15 -2.17 -4.57 -2.25 -4.57 -0.97 -4.12 -1.05 -4.12 0.07 -7.12 0.07 -7.12 1.27 -4.50 c 1.72 -5.70 3.75 -9.67 6.90 -13.65 l 2.55 -3.07 3.37 -1.65 3.45 -1.65 4.50 0.30 4.42 0.30 3.15 2.25 3.07 2.17 2.47 3.60 2.47 3.52 1.57 4.27 1.57 4.20 0.82 5.77 0.82 5.85 -0.82 5.62 c -1.12 7.20 -2.70 12 -5.55 16.50 l -2.25 3.60 -3.07 2.55 -3.07 2.62 -2.62 0.75 c -3.60 0.97 -5.85 0.90 -9.37 -0.37 z  m 11.92 -2.92 l 2.92 -1.57 2.47 -3.22 2.47 -3.30 0 -20.47 0 -20.47 -3.37 -3.75 -3.37 -3.75 -2.55 -1.20 -2.55 -1.20 -2.70 0 -2.77 0 -2.85 1.42 -2.77 1.50 -2.85 3.15 -2.85 3.07 -1.72 3.97 -1.72 3.90 -0.97 4.65 -0.90 4.57 0.37 7.35 0.45 7.27 1.57 4.27 1.65 4.35 2.40 3.52 c 2.77 4.05 5.02 5.85 9.22 7.35 l 2.92 1.05 2.25 -0.37 c 1.27 -0.22 3.60 -1.20 5.25 -2.10 z "/>
  <path d="M 1627.77 1044.59 l -2.62 -1.42 -2.77 -3.60 -2.70 -3.60 -1.57 -4.72 -1.50 -4.65 -0.52 -4.80 -0.45 -4.72 0.82 -5.47 0.82 -5.40 1.80 -4.05 1.80 -4.12 3.15 -3.37 3.15 -3.45 2.77 -0.75 2.77 -0.75 2.70 0.75 2.62 0.75 3.52 3.75 3.45 3.67 0 8.62 0 8.70 -1.80 -0.82 -1.72 -0.82 -1.65 0.82 -1.57 0.90 0 1.72 0 1.80 1.12 0.90 1.12 0.90 2.25 -0.45 2.25 -0.37 0 8.10 0 8.10 -2.25 3.07 -2.25 3.07 -2.92 1.57 -3 1.50 -2.10 0 -2.10 0 -2.62 -1.35 z "/>
  <path d="M 141.71 944.72 l 0 -100.47 41.09 0 c 22.64 0 64.48 0.22 92.97 0.52 l 51.88 0.45 0 19.27 0 19.27 -8.40 0.45 -8.47 0.45 -7.42 1.50 c -4.05 0.90 -11.02 2.77 -15.37 4.20 l -7.95 2.62 -9 4.50 -9 4.57 -7.12 5.02 -7.05 5.02 -8.17 7.87 -8.17 7.87 -5.02 6.75 c -8.70 11.62 -14.70 22.79 -19.19 35.61 l -2.70 7.80 -1.87 9.22 -1.80 9.22 -0.22 8.40 -0.15 8.47 63.58 0.22 63.51 0.15 0 15.75 0 15.75 -92.97 0 -92.97 0 0 -100.47 z "/>
  <path d="M 1588.78 889.24 l 0 -56.23 -3.37 0 -3.37 0 0 -55.86 0 -55.86 22.27 0 22.19 0 -0.45 36.14 c -0.30 19.87 -0.52 70.25 -0.52 112.09 l 0 75.95 -18.37 0 -18.37 0 0 -56.23 z "/>
  <path d="M 1628.52 833.38 l 0 -112.09 1.12 0 1.12 0 0 28.49 0 28.49 1.12 0 1.12 0 0 -28.49 0 -28.49 15.75 0 15.75 0 0 112.09 0 112.09 -15.75 0 -15.75 0 0 -28.49 0 -28.49 -1.50 0 -1.50 0 0 28.49 0 28.49 -0.75 0 -0.75 0 0 -112.09 z  m 4.35 -0.15 l -0.22 -28.94 -0.82 -0.30 -0.82 -0.30 -0.45 28.72 c -0.22 15.75 -0.22 28.94 -0.07 29.24 0.22 0.30 0.90 0.60 1.50 0.60 l 1.05 0 -0.15 -29.02 z "/>
  <path d="M 1142.51 944.20 l -2.10 -0.30 0 -72.28 0 -72.28 5.47 -0.22 5.40 -0.22 0.45 -12.75 0.52 -12.75 1.57 -9.15 1.50 -9.07 2.77 -8.55 2.70 -8.47 3.67 -7.87 3.75 -7.80 5.47 -8.32 5.55 -8.25 5.32 -6.15 5.40 -6.22 6.52 -5.70 6.52 -5.62 7.12 -4.80 c 12.15 -8.10 26.24 -14.55 39.36 -17.99 7.50 -1.95 20.99 -4.12 25.42 -4.12 l 2.70 0 0.15 66.21 0.22 66.13 2.10 0.22 2.02 0.22 0 5.62 0 5.55 5.62 0 5.62 0 0 72.73 0 72.73 -74.38 -0.07 c -40.94 -0.07 -75.35 -0.30 -76.48 -0.45 z  m 124.01 -71.23 l 0.37 -45.59 -0.60 -0.67 -0.52 -0.60 -46.04 -0.15 -45.96 -0.07 -0.22 46.34 -0.15 46.26 46.41 0 46.41 0 0.30 -45.51 z "/>
  <path d="M 1196.12 915.71 l -20.47 -0.22 0 -15.30 c 0 -8.32 0.22 -27.89 0.52 -43.41 l 0.45 -28.27 43.79 0 43.71 0 0 43.86 0 43.86 -23.77 -0.15 c -13.12 -0.15 -33.07 -0.30 -44.24 -0.37 z "/>
  <path d="M 1307.09 887.21 c 0.30 -31.57 0.52 -82.03 0.52 -112.09 l 0 -54.58 19.49 0 19.49 0 0.15 28.27 0.22 28.34 1.35 0.22 1.27 0.22 0 -28.49 0 -28.57 0.75 0 0.75 0 0 112.09 0 112.09 -0.75 0 -0.75 0 -0.15 -28.27 -0.22 -28.34 -1.27 -0.22 -1.35 -0.22 0 28.49 0 28.57 -20.02 0 -19.94 0 0.45 -57.51 z  m 42.06 -26.17 l 0.45 -1.20 0 -28.12 0 -28.04 -1.27 0.22 -1.35 0.22 -0.22 28.12 c -0.07 15.45 0 28.57 0.22 29.02 0.45 1.35 1.65 1.20 2.17 -0.22 z "/>
  <path d="M 1354.10 832.63 l 0 -112.09 14.25 0 14.25 0 0.15 57.21 0.22 57.13 2.10 0.22 2.02 0.22 0 54.73 0 54.66 -16.50 0 -16.50 0 0 -112.09 z "/>
  <path d="M 587.08 208.81 l 0 -1.12 91.32 0 91.25 0 8.47 0.52 8.40 0.45 0 0.67 0 0.60 -99.72 0 -99.72 0 0 -1.12 z "/>
  <path d="M 884.22 204.91 l -94.70 -0.22 0 -1.12 0 -1.12 74.45 0 c 40.86 0 85.77 0.22 99.72 0.52 l 25.27 0.45 0 1.05 0 0.97 -5.02 -0.15 c -2.85 -0.15 -47.69 -0.30 -99.72 -0.37 z "/>
  <path d="M 587.08 152.58 l 0 -52.11 270.30 0 270.30 0 0 49.86 0 49.79 -170.35 -0.15 -170.42 -0.15 -0.22 2.47 -0.22 2.40 -99.72 0 -99.65 0 0 -52.11 z "/>
  <path d="M 1344.36 142.83 l 0 -1.12 74.98 0 74.98 0 0 1.12 0 1.12 -74.98 0 -74.98 0 0 -1.12 z "/>
  <path d="M 389.74 141.93 l -45.59 -0.22 0 -1.27 0 -1.20 48.51 0.45 c 26.62 0.30 60.36 0.52 74.98 0.52 l 26.47 0 0 1.12 0 1.12 -29.39 -0.15 c -16.20 -0.15 -49.94 -0.30 -74.98 -0.37 z "/>
  <path d="M 1344.36 137.58 l 0 -1.12 74.98 0 74.98 0 0 1.12 0 1.12 -74.98 0 -74.98 0 0 -1.12 z "/>
  <path d="M 344.15 135.34 l 0 -1.12 74.98 0 74.98 0 0 1.12 0 1.12 -74.98 0 -74.98 0 0 -1.12 z "/>
 </g>
<g>
   <text fill="#000000" font-family="Arial" x="50.94024%" y="10.170308%" text-anchor="middle" dominant-baseline="central" font-size="29.721748">Balcony</text>
   <text fill="#000000" font-family="Arial" x="83.20636%" y="24.149326%" text-anchor="middle" dominant-baseline="central" font-size="29.497608">Bedroom</text>
   <text fill="#000000" font-family="Arial" x="20.212612%" y="26.651148%" text-anchor="middle" dominant-baseline="central" font-size="29.553352">Bedroom</text>
   <text fill="#000000" font-family="Arial" x="52.232944%" y="28.42961%" text-anchor="middle" dominant-baseline="central" font-size="29.882011">Living Room</text>
   <text fill="#000000" font-family="Arial" x="83.196014%" y="27.930845%" text-anchor="middle" dominant-baseline="central" font-size="28.791674">11' X 10'</text>
   <text fill="#000000" font-family="Arial" x="20.176805%" y="30.403242%" text-anchor="middle" dominant-baseline="central" font-size="28.616877">10' X 14'</text>
   <text fill="#000000" font-family="Arial" x="62.404472%" y="29.407879%" text-anchor="middle" dominant-baseline="central" font-size="28.868462">9'</text>
   <text fill="#000000" font-family="Arial" x="52.22248%" y="31.802757%" text-anchor="middle" dominant-baseline="central" font-size="28.383558">12' X 15'</text>
   <text fill="#000000" font-family="Arial" x="71.763504%" y="59.786736%" text-anchor="middle" dominant-baseline="central" font-size="15.806207">W/D</text>
   <text fill="#000000" font-family="Arial" x="67.989655%" y="68.0442%" text-anchor="middle" dominant-baseline="central" font-size="14.771933">o</text>
   <text fill="#000000" font-family="Arial" x="58.779224%" y="69.48521%" text-anchor="middle" dominant-baseline="central" font-size="14.336982">DW</text>
   <text fill="#000000" font-family="Arial" x="67.73597%" y="78.423355%" text-anchor="middle" dominant-baseline="central" font-size="29.332237">Kitchen</text>
   <text fill="#000000" font-family="Arial" x="86.87143%" y="78.37593%" text-anchor="middle" dominant-baseline="central" font-size="28.897078">Bath</text>
   <text fill="#000000" font-family="Arial" x="19.343925%" y="82.18239%" text-anchor="middle" dominant-baseline="central" font-size="28.63104">Bath</text>
   <text fill="#000000" font-family="Arial" x="65.38765%" y="91.22729%" text-anchor="middle" dominant-baseline="central" font-size="17.018133">Ref</text>
</g>
</svg>